<svg width="36" height="36" viewBox="0 0 36 36" fill="none" xmlns="http://www.w3.org/2000/svg">
<path d="M21 28.5H28.5V7.5H7.5V28.5H18V21H15V18H18V15.5187C18 13.5128 18.2088 12.7854 18.601 12.0521C18.9933 11.3188 19.5687 10.7432 20.3021 10.3511C20.8761 10.0441 21.5883 9.85878 22.8326 9.77931C23.3265 9.74776 23.9657 9.78799 24.75 9.9V12.75H24C22.6241 12.75 22.0563 12.815 21.7169 12.9965C21.5064 13.1091 21.3591 13.2564 21.2465 13.4669C21.0649 13.8063 21 14.1428 21 15.5187V18H24.75L24 21H21V28.5ZM6 4.5H30C30.8284 4.5 31.5 5.17158 31.5 6V30C31.5 30.8284 30.8284 31.5 30 31.5H6C5.17158 31.5 4.5 30.8284 4.5 30V6C4.5 5.17158 5.17158 4.5 6 4.5Z" fill="white"/>
</svg>
