<svg width="36" height="36" viewBox="0 0 36 36" fill="none" xmlns="http://www.w3.org/2000/svg">
<path d="M18.002 13.5C15.5159 13.5 13.502 15.5147 13.502 18C13.502 20.486 15.5166 22.5 18.002 22.5C20.4879 22.5 22.502 20.4853 22.502 18C22.502 15.514 20.4873 13.5 18.002 13.5ZM18.002 10.5C22.1426 10.5 25.502 13.8556 25.502 18C25.502 22.1408 22.1463 25.5 18.002 25.5C13.8612 25.5 10.502 22.1444 10.502 18C10.502 13.8593 13.8576 10.5 18.002 10.5ZM27.752 10.1237C27.752 11.1589 26.9108 11.9988 25.877 11.9988C24.8418 11.9988 24.002 11.1576 24.002 10.1237C24.002 9.08985 24.843 8.25 25.877 8.25C26.9094 8.24869 27.752 9.08985 27.752 10.1237ZM18.002 6C14.2902 6 13.6853 6.00982 11.9589 6.0867C10.7827 6.14191 9.99428 6.3001 9.26172 6.5845C8.61072 6.83698 8.14112 7.13847 7.64076 7.63882C7.13849 8.1411 6.83754 8.60945 6.58608 9.26075C6.30102 9.99498 6.14288 10.7822 6.08865 11.9567C6.01103 13.6128 6.00195 14.1916 6.00195 18C6.00195 21.7118 6.01178 22.3167 6.08864 24.0429C6.14388 25.2186 6.30228 26.0082 6.58599 26.739C6.83913 27.3909 7.14123 27.8616 7.63917 28.3596C8.14343 28.8632 8.61317 29.1651 9.25829 29.4141C9.99977 29.7008 10.7877 29.8591 11.9587 29.9133C13.6148 29.9909 14.1935 30 18.002 30C21.7137 30 22.3187 29.9901 24.0449 29.9133C25.218 29.8582 26.0082 29.6994 26.741 29.4159C27.3911 29.1634 27.8633 28.8603 28.3616 28.3628C28.8659 27.8577 29.1672 27.3891 29.4165 26.7425C29.7024 26.0037 29.8611 25.2147 29.9153 24.0434C29.9928 22.3872 30.002 21.8083 30.002 18C30.002 14.2883 29.9921 13.6833 29.9153 11.9571C29.8601 10.7836 29.7012 9.99224 29.4174 9.25977C29.1656 8.61057 28.863 8.13952 28.3631 7.63882C27.86 7.13572 27.3929 6.8354 26.7411 6.58413C26.0075 6.29931 25.2191 6.14094 24.0452 6.08671C22.3892 6.00907 21.8103 6 18.002 6ZM18.002 3C22.0769 3 22.5857 3.015 24.1857 3.09C25.7819 3.16375 26.8707 3.41625 27.827 3.7875C28.8156 4.16876 29.6507 4.68375 30.4844 5.51749C31.3169 6.35125 31.832 7.18875 32.2145 8.175C32.5844 9.13 32.837 10.22 32.912 11.8162C32.9832 13.4163 33.002 13.925 33.002 18C33.002 22.0751 32.987 22.5837 32.912 24.1838C32.8382 25.78 32.5844 26.8687 32.2145 27.825C31.8332 28.8138 31.3169 29.6487 30.4844 30.4825C29.6507 31.315 28.8119 31.83 27.827 32.2125C26.8707 32.5826 25.7819 32.835 24.1857 32.91C22.5857 32.9813 22.0769 33 18.002 33C13.9269 33 13.4182 32.985 11.8182 32.91C10.2219 32.8362 9.13445 32.5826 8.17695 32.2125C7.18944 31.8312 6.35319 31.315 5.51945 30.4825C4.6857 29.6487 4.17195 28.81 3.78945 27.825C3.4182 26.8687 3.16695 25.78 3.09195 24.1838C3.0207 22.5837 3.00195 22.0751 3.00195 18C3.00195 13.925 3.01695 13.4163 3.09195 11.8162C3.16569 10.2188 3.4182 9.13125 3.78945 8.175C4.17069 7.1875 4.6857 6.35125 5.51945 5.51749C6.35319 4.68375 7.1907 4.17 8.17695 3.7875C9.1332 3.41625 10.2207 3.165 11.8182 3.09C13.4182 3.01875 13.9269 3 18.002 3Z" fill="white"/>
</svg>
