<svg width="80" height="29" viewBox="0 0 80 29" fill="none" xmlns="http://www.w3.org/2000/svg">
<g clip-path="url(#clip0_26505_2203)">
<path d="M32.7422 26.5326V10.2339C32.7422 8.79402 33.3099 7.41307 34.3203 6.39488C35.3308 5.3767 36.7012 4.80469 38.1302 4.80469L42.9055 4.8114C44.3307 4.81429 45.6966 5.38689 46.7034 6.40353C47.7101 7.42017 48.2754 8.79776 48.2752 10.2339V13.7024C48.2752 15.1424 47.7075 16.5235 46.6971 17.5418C45.6867 18.5601 44.3162 19.1323 42.8871 19.1325H36.1377" stroke="white" stroke-width="2.36812" stroke-linecap="round" stroke-linejoin="round"/>
<path d="M49.6094 4.80469H51.681C52.2675 4.80469 52.83 5.03947 53.2448 5.45738C53.6595 5.87529 53.8925 6.4421 53.8925 7.03311V19.2072" stroke="white" stroke-width="2.36812" stroke-linecap="round" stroke-linejoin="round"/>
<path d="M53.45 2.91985L52.5107 1.9726C52.4553 1.91681 52.4114 1.85057 52.3814 1.77765C52.3514 1.70473 52.3359 1.62657 52.3359 1.54764C52.3359 1.46871 52.3514 1.39055 52.3814 1.31763C52.4114 1.24472 52.4553 1.17847 52.5107 1.12268L53.45 0.176272C53.5621 0.0634023 53.714 0 53.8725 0C54.031 0 54.183 0.0634023 54.2951 0.176272L55.2335 1.12268C55.2889 1.17847 55.3329 1.24472 55.3628 1.31763C55.3928 1.39055 55.4083 1.46871 55.4083 1.54764C55.4083 1.62657 55.3928 1.70473 55.3628 1.77765C55.3329 1.85057 55.2889 1.91681 55.2335 1.9726L54.2909 2.91985C54.2355 2.97571 54.1697 3.02002 54.0972 3.05026C54.0248 3.08049 53.9472 3.09605 53.8688 3.09605C53.7904 3.09605 53.7127 3.08049 53.6403 3.05026C53.5679 3.02002 53.5021 2.97571 53.4466 2.91985" fill="white"/>
<path d="M57.875 4.79492H59.9291C60.9858 4.79448 61.9993 5.217 62.7468 5.96954L67.552 10.8115C67.6999 10.9607 67.8756 11.0791 68.069 11.1599C68.2624 11.2407 68.4697 11.2823 68.679 11.2823C68.8883 11.2823 69.0956 11.2407 69.289 11.1599C69.4824 11.0791 69.658 10.9607 69.806 10.8115L74.5937 5.988C74.9636 5.61533 75.4028 5.31977 75.8861 5.11823C76.3694 4.91668 76.8874 4.81309 77.4105 4.81338H79.0808" stroke="white" stroke-width="2.36812" stroke-linecap="round" stroke-linejoin="round"/>
<path d="M57.8672 19.1038H59.9213C60.9779 19.1042 61.9915 18.6817 62.739 17.9292L67.5442 13.0873C67.8432 12.7863 68.2485 12.6172 68.6712 12.6172C69.0938 12.6172 69.4992 12.7863 69.7982 13.0873L74.5859 17.9116C75.3331 18.664 76.3463 19.0865 77.4027 19.0862H79.073" stroke="white" stroke-width="2.36812" stroke-linecap="round" stroke-linejoin="round"/>
<path d="M20.4931 22.1948C19.9863 22.1966 19.4841 22.0973 19.0156 21.9024C18.5472 21.7076 18.1217 21.4211 17.7637 21.0596L13.8211 17.0844C13.6817 16.95 13.4961 16.875 13.3032 16.875C13.1103 16.875 12.9247 16.95 12.7853 17.0844L8.8294 21.0705C8.47165 21.4326 8.04624 21.7196 7.57777 21.915C7.10929 22.1104 6.60702 22.2104 6.09999 22.2091H5.32812L10.324 27.2431C11.0733 27.9965 12.0886 28.4197 13.1471 28.4197C14.2056 28.4197 15.2209 27.9965 15.9702 27.2431L20.976 22.1981L20.4931 22.1948Z" fill="white"/>
<path d="M6.10082 8.146C6.60786 8.14464 7.11014 8.24456 7.57862 8.43998C8.04711 8.63541 8.47251 8.92246 8.83023 9.28455L12.7861 13.2715C12.9236 13.4097 13.1099 13.4872 13.304 13.4872C13.4982 13.4872 13.6844 13.4097 13.8219 13.2715L17.7637 9.29965C18.1211 8.93711 18.5464 8.6497 19.015 8.45411C19.4835 8.25852 19.9859 8.15864 20.4931 8.16027H20.9677L15.9618 3.11611C15.5912 2.74246 15.151 2.44605 14.6667 2.24382C14.1823 2.04159 13.6631 1.9375 13.1388 1.9375C12.6144 1.9375 12.0952 2.04159 11.6109 2.24382C11.1265 2.44605 10.6864 2.74246 10.3157 3.11611L5.32812 8.146H6.10082Z" fill="white"/>
<path d="M25.1112 12.333L22.0862 9.28491C22.0179 9.31301 21.945 9.32781 21.8713 9.32854H20.4958C19.78 9.33034 19.0939 9.61679 18.5865 10.1256L14.6448 14.095C14.2898 14.452 13.8087 14.6526 13.3072 14.6526C12.8056 14.6526 12.3245 14.452 11.9695 14.095L8.01278 10.1105C7.50559 9.60138 6.81943 9.31462 6.10352 9.3126H4.41492C4.34533 9.31102 4.27655 9.2971 4.21175 9.27148L1.1676 12.333C0.419913 13.0881 0 14.1111 0 15.1777C0 16.2443 0.419913 17.2674 1.1676 18.0224L4.20509 21.0831C4.26975 21.057 4.33861 21.0431 4.40826 21.042H6.10352C6.81941 21.0399 7.50554 20.7532 8.01278 20.2441L11.9687 16.258C12.6839 15.5381 13.9304 15.5381 14.6448 16.258L18.5865 20.229C19.0939 20.7378 19.78 21.0243 20.4958 21.0261H21.8713C21.9451 21.0266 22.018 21.0414 22.0862 21.0697L25.1112 18.0216C25.482 17.648 25.7761 17.2046 25.9768 16.7165C26.1775 16.2284 26.2808 15.7052 26.2808 15.1769C26.2808 14.6486 26.1775 14.1254 25.9768 13.6373C25.7761 13.1492 25.482 12.7057 25.1112 12.3322" fill="white"/>
<path d="M36.8521 25.1493C36.602 25.1603 36.3539 25.1983 36.1118 25.2626V26.256C36.297 26.3214 36.4919 26.3543 36.688 26.3533C37.1826 26.3533 37.4166 26.1855 37.4166 25.7467C37.4166 25.3339 37.2251 25.1493 36.8521 25.1493ZM35.9453 26.9951V25.0293H36.081L36.0952 25.1132C36.3474 25.0457 36.6057 25.0038 36.8662 24.9882C37.0467 24.9755 37.2259 25.0278 37.3716 25.1359C37.5382 25.2752 37.5948 25.5 37.5948 25.745C37.5948 25.99 37.5115 26.2434 37.2784 26.3768C37.1005 26.4662 36.9035 26.5103 36.7047 26.5052C36.5037 26.5039 36.304 26.4731 36.1118 26.4137V26.9918L35.9453 26.9951Z" fill="white"/>
<path d="M38.8379 25.1438C38.3441 25.1438 38.1235 25.2998 38.1235 25.7386C38.1235 26.1623 38.3408 26.3536 38.8379 26.3536C39.335 26.3536 39.5498 26.1993 39.5498 25.7613C39.5498 25.3376 39.3325 25.1438 38.8379 25.1438ZM39.474 26.3536C39.3075 26.4728 39.0894 26.5072 38.8379 26.5072C38.5864 26.5072 38.3608 26.4703 38.2001 26.3536C38.0194 26.2253 37.9453 26.018 37.9453 25.7504C37.9453 25.4827 38.0194 25.2747 38.2001 25.1438C38.3608 25.0271 38.5815 24.9902 38.8379 24.9902C39.0944 24.9902 39.31 25.0271 39.474 25.1438C39.6572 25.2747 39.728 25.4878 39.728 25.747C39.728 26.0063 39.6547 26.2253 39.474 26.3536Z" fill="white"/>
<path d="M41.8089 26.4665L41.2577 25.2743H41.2469L40.704 26.4665H40.5516L39.9688 25.0293H40.1519L40.6407 26.2358H40.6524L41.1836 25.0293H41.336L41.8805 26.2358H41.8922L42.3693 25.0293H42.55L41.9621 26.4665H41.8089Z" fill="white"/>
<path d="M43.6109 25.1403C43.1529 25.1403 42.9981 25.3459 42.9697 25.6437H44.252C44.2379 25.3165 44.0713 25.1403 43.6109 25.1403ZM43.6051 26.507C43.3311 26.507 43.1529 26.4668 43.0114 26.3476C42.8448 26.2025 42.7891 25.9919 42.7891 25.7503C42.7891 25.5086 42.8648 25.2745 43.0547 25.1353C43.2207 25.03 43.415 24.9793 43.6109 24.9901C43.8106 24.978 44.0092 25.0265 44.1812 25.1294C44.3869 25.2687 44.4269 25.5137 44.4269 25.7922H42.9656C42.9714 26.0884 43.0672 26.3502 43.6209 26.3502C43.8684 26.3436 44.115 26.3155 44.3578 26.2663V26.4173C44.111 26.4684 43.8602 26.4979 43.6084 26.5054" fill="white"/>
<path d="M44.9062 26.4666V25.0294H45.0411L45.0553 25.1133C45.3575 25.0361 45.4991 24.9883 45.7647 24.9883H45.7847V25.1477H45.7447C45.5216 25.1477 45.3859 25.1787 45.0728 25.261V26.4649L44.9062 26.4666Z" fill="white"/>
<path d="M46.7515 25.1403C46.2944 25.1403 46.1387 25.3459 46.1104 25.6437H47.3926C47.3785 25.3165 47.212 25.1403 46.7515 25.1403ZM46.7457 26.507C46.4717 26.507 46.2944 26.4668 46.1528 26.3476C45.9863 26.2025 45.9297 25.9919 45.9297 25.7503C45.9297 25.5086 46.0063 25.2745 46.1953 25.1353C46.3614 25.0302 46.5557 24.9795 46.7515 24.9901C46.9512 24.978 47.1499 25.0265 47.3219 25.1294C47.5284 25.2687 47.5717 25.5137 47.5717 25.7922H46.1045C46.1104 26.0884 46.2061 26.3502 46.7598 26.3502C47.0077 26.3436 47.2545 26.3155 47.4976 26.2663V26.4173C47.2508 26.4684 47 26.4978 46.7482 26.5054" fill="white"/>
<path d="M49.397 25.2402C49.2118 25.1751 49.0169 25.1424 48.8208 25.1437C48.3262 25.1437 48.0922 25.3115 48.0922 25.7503C48.0922 26.1656 48.2846 26.3477 48.6568 26.3477C48.9067 26.336 49.1547 26.2986 49.397 26.2361V25.2402ZM49.4286 26.4668L49.4137 26.3829C49.1616 26.4512 48.9032 26.4934 48.6426 26.5088C48.4619 26.5225 48.2823 26.4697 48.1372 26.3603C47.9707 26.221 47.9141 25.9961 47.9141 25.752C47.9141 25.4952 47.9973 25.2536 48.2305 25.1227C48.4086 25.0312 48.6067 24.9862 48.8067 24.9918C49.0066 24.9946 49.2053 25.0251 49.397 25.0825V24.4238H49.5635V26.4668H49.4286Z" fill="white"/>
<path d="M52.0005 25.1496C51.7505 25.1606 51.5023 25.1986 51.2603 25.2628V26.2537C51.445 26.321 51.6401 26.3548 51.8365 26.3536C52.3311 26.3536 52.565 26.1858 52.565 25.747C52.565 25.3342 52.3735 25.1496 52.0005 25.1496ZM52.4268 26.3787C52.2492 26.4681 52.0525 26.5122 51.854 26.5071C51.6367 26.5057 51.4211 26.4692 51.2153 26.3989L51.207 26.4668H51.0938V24.4238H51.2603V25.1093C51.5074 25.0456 51.76 25.0057 52.0147 24.9902C52.1952 24.9774 52.3743 25.0297 52.5201 25.1378C52.6866 25.2771 52.7432 25.502 52.7432 25.747C52.7432 25.9919 52.66 26.2453 52.4268 26.3787Z" fill="white"/>
<path d="M52.9672 27.0166V26.8606C53.0504 26.869 53.1254 26.8749 53.1786 26.8749C53.3851 26.8749 53.5117 26.8144 53.6249 26.5787L53.6791 26.4646L52.9297 25.0273H53.1229L53.7615 26.2682H53.7723L54.3793 25.0273H54.5692L53.7665 26.6416C53.6199 26.9344 53.4617 27.0309 53.1703 27.0309C53.1015 27.0306 53.0328 27.0258 52.9647 27.0166" fill="white"/>
<path d="M56.8703 25.6469H56.3175V26.1503H56.8703C57.2517 26.1503 57.3957 26.1075 57.3957 25.8986C57.3957 25.6737 57.1976 25.6469 56.867 25.6469M56.7671 24.8347H56.3158V25.3465H56.7704C57.1459 25.3465 57.2958 25.3012 57.2958 25.0881C57.2958 24.8599 57.106 24.8364 56.7671 24.8364M57.6264 26.3366C57.4224 26.4674 57.1767 26.4725 56.7279 26.4725H55.8828V24.5176H56.708C57.0951 24.5176 57.3324 24.5226 57.5298 24.6426C57.5954 24.682 57.6487 24.7391 57.6837 24.8075C57.7187 24.8758 57.7341 24.9527 57.728 25.0294C57.728 25.2341 57.6447 25.3709 57.4224 25.4623V25.4732C57.6722 25.5303 57.832 25.6586 57.832 25.9347C57.8383 26.0135 57.8223 26.0925 57.7859 26.1626C57.7495 26.2326 57.6942 26.2909 57.6264 26.3307" fill="white"/>
<path d="M59.5181 25.8639C59.3516 25.8497 59.1851 25.8413 59.0044 25.8413C58.7138 25.8413 58.6114 25.9008 58.6114 26.0351C58.6114 26.1693 58.6947 26.2281 58.9195 26.2281C59.1214 26.2214 59.3221 26.1932 59.5181 26.1442V25.8639ZM59.6014 26.4672L59.5906 26.3833C59.3381 26.455 59.0783 26.4972 58.8162 26.5091C58.6648 26.5194 58.5139 26.4825 58.3841 26.4034C58.3283 26.3562 58.2849 26.2958 58.2579 26.2276C58.231 26.1594 58.2212 26.0855 58.2294 26.0126C58.2376 25.9396 58.2637 25.8698 58.3052 25.8095C58.3467 25.7492 58.4024 25.7001 58.4673 25.6668C58.6172 25.5954 58.8179 25.5896 59.0019 25.5896C59.1509 25.5896 59.3516 25.598 59.5181 25.6097V25.5837C59.5181 25.3588 59.3716 25.285 58.9703 25.285C58.8154 25.285 58.6255 25.2934 58.4449 25.3102V25.0199C58.6455 25.0031 58.872 24.9922 59.0585 24.9922C59.3083 24.9922 59.5639 25.0115 59.7246 25.1256C59.8853 25.2397 59.9195 25.405 59.9195 25.6181V26.4689L59.6014 26.4672Z" fill="white"/>
<path d="M61.788 26.4672V25.6743C61.788 25.4126 61.6557 25.3186 61.4184 25.3186C61.2214 25.3274 61.0259 25.3578 60.8355 25.4092V26.468H60.4375V25.03H60.7622L60.7764 25.1214C61.0246 25.0478 61.2806 25.0039 61.5391 24.9905C61.7146 24.9764 61.889 25.0291 62.0279 25.1382C62.1403 25.2406 62.1827 25.3832 62.1827 25.5879V26.4672H61.788Z" fill="white"/>
<path d="M63.3038 26.5072C63.1197 26.5072 62.9191 26.4812 62.7725 26.3561C62.5977 26.2135 62.5469 25.9895 62.5469 25.747C62.5469 25.5197 62.6201 25.2713 62.8375 25.132C63.0157 25.0154 63.2355 24.9902 63.4645 24.9902C63.631 24.9902 63.7892 25.0011 63.964 25.0179V25.3258C63.82 25.3116 63.6476 25.3007 63.5094 25.3007C63.1306 25.3007 62.9524 25.4198 62.9524 25.7504C62.9524 26.06 63.0856 26.1942 63.3962 26.1942C63.5975 26.1876 63.7979 26.1629 63.9948 26.1204V26.4157C63.7669 26.4692 63.5343 26.4998 63.3004 26.5072" fill="white"/>
<path d="M65.1738 25.2914C64.7949 25.2914 64.6284 25.4114 64.6284 25.7386C64.6284 26.0658 64.7949 26.2051 65.1738 26.2051C65.5526 26.2051 65.7133 26.0885 65.7133 25.7613C65.7133 25.4341 65.5526 25.2914 65.1738 25.2914ZM65.8574 26.3561C65.6825 26.4753 65.4536 26.5072 65.1738 26.5072C64.894 26.5072 64.6601 26.4728 64.4877 26.3561C64.2895 26.2253 64.2188 26.0088 64.2188 25.7504C64.2188 25.492 64.2895 25.2713 64.4877 25.1404C64.6601 25.0238 64.8882 24.9902 65.1738 24.9902C65.4594 24.9902 65.6825 25.0238 65.8574 25.1404C66.0547 25.2713 66.123 25.4911 66.123 25.747C66.123 26.0029 66.0522 26.2253 65.8574 26.3561Z" fill="white"/>
<path d="M68.4185 26.5061C68.1787 26.5061 67.919 26.4659 67.7241 26.3039C67.4927 26.1101 67.4219 25.8114 67.4219 25.4901C67.4219 25.2023 67.5126 24.8608 67.814 24.662C68.0489 24.5084 68.3394 24.4766 68.6334 24.4766C68.8482 24.4766 69.0688 24.4908 69.3086 24.511V24.8608C69.103 24.8441 68.8482 24.8298 68.6509 24.8298C68.0996 24.8298 67.8657 25.0404 67.8657 25.4901C67.8657 25.9398 68.083 26.1529 68.4893 26.1529C68.7797 26.1428 69.0684 26.1037 69.3511 26.0363V26.3836C69.045 26.4549 68.7326 26.496 68.4185 26.5061Z" fill="white"/>
<path d="M70.5262 25.2467C70.1932 25.2467 70.0683 25.3667 70.0425 25.5823H71.0033C70.9917 25.3491 70.856 25.2467 70.5262 25.2467ZM70.4663 26.5052C70.2323 26.5052 70.02 26.4767 69.8618 26.3458C69.7036 26.2149 69.6328 25.9901 69.6328 25.7451C69.6328 25.5261 69.7036 25.2811 69.9018 25.1385C70.0766 25.0134 70.2998 24.9883 70.5262 24.9883C70.7294 24.9883 70.9692 25.0109 71.1441 25.1334C71.373 25.2954 71.3939 25.5462 71.3939 25.8416H70.04C70.0483 26.0614 70.164 26.2032 70.5654 26.2032C70.8202 26.1976 71.0743 26.1729 71.3256 26.1293V26.4112C71.0421 26.4655 70.7547 26.4969 70.4663 26.5052Z" fill="white"/>
<path d="M73.163 26.4672V25.6743C73.163 25.4126 73.0307 25.3186 72.7934 25.3186C72.5964 25.3274 72.401 25.3578 72.2105 25.4092V26.468H71.8125V25.03H72.1372L72.1514 25.1214C72.3996 25.0478 72.6556 25.0039 72.9141 24.9905C73.0896 24.9764 73.264 25.0291 73.4029 25.1382C73.5153 25.2406 73.5577 25.3832 73.5577 25.5879V26.4672H73.163Z" fill="white"/>
<path d="M74.6997 26.5067C74.5074 26.5067 74.3325 26.4522 74.2368 26.3011C74.1583 26.1706 74.1217 26.0188 74.1318 25.8665V25.3279H73.8438V25.0292H74.1318L74.1743 24.5938H74.5257V25.0292H75.0877V25.3279H74.5257V25.7893C74.5204 25.8822 74.5337 25.9753 74.5648 26.0629C74.6073 26.1594 74.7005 26.1963 74.8254 26.1963C74.921 26.1945 75.0162 26.185 75.1102 26.1677V26.4555C74.9746 26.4851 74.8367 26.5022 74.698 26.5067" fill="white"/>
<path d="M75.4688 26.4676V25.0304H75.7935L75.8076 25.1219C76.0354 25.0439 76.2733 24.9998 76.5137 24.991C76.5306 24.99 76.5476 24.99 76.5645 24.991V25.3392C76.5195 25.3392 76.4654 25.3392 76.4263 25.3392C76.2374 25.34 76.0494 25.3648 75.8668 25.413V26.4744L75.4688 26.4676Z" fill="white"/>
<path d="M78.0125 25.8639C77.846 25.8497 77.6794 25.8413 77.4979 25.8413C77.2073 25.8413 77.1057 25.9008 77.1057 26.0351C77.1057 26.1693 77.189 26.2281 77.413 26.2281C77.6152 26.2214 77.8161 26.1932 78.0125 26.1442V25.8639ZM78.0958 26.4672L78.0841 26.3833C77.8316 26.455 77.5718 26.4972 77.3097 26.5091C77.1583 26.5194 77.0075 26.4825 76.8776 26.4034C76.8251 26.3629 76.7833 26.3101 76.7557 26.2495C76.7281 26.189 76.7157 26.1226 76.7194 26.0561C76.7155 25.9742 76.7365 25.8932 76.7795 25.8236C76.8225 25.7541 76.8854 25.6994 76.96 25.6668C77.1099 25.5954 77.3097 25.5896 77.4938 25.5896C77.6436 25.5896 77.8443 25.598 78.0108 25.6097V25.5837C78.0108 25.3588 77.8635 25.285 77.463 25.285C77.3072 25.285 77.1182 25.2934 76.9376 25.3102V25.0199C77.1382 25.0031 77.3639 24.9922 77.5504 24.9922C77.8002 24.9922 78.0558 25.0115 78.2165 25.1256C78.3772 25.2397 78.4113 25.405 78.4113 25.6181V26.4689L78.0958 26.4672Z" fill="white"/>
<path d="M78.9297 24.4238H79.3285V26.4668H78.9297V24.4238Z" fill="white"/>
</g>
<defs>
<clipPath id="clip0_26505_2203">
<rect width="79.332" height="28.4174" fill="white"/>
</clipPath>
</defs>
</svg>
