<svg width="36" height="36" viewBox="0 0 36 36" fill="none" xmlns="http://www.w3.org/2000/svg">
<path d="M29.4108 10.4922C29.2965 10.0454 28.9733 9.70832 28.6031 9.60432C27.9453 9.42093 24.752 9 18.002 9C11.252 9 8.05926 9.4211 7.39886 9.60485C7.03212 9.70685 6.70893 10.0439 6.59313 10.4922C6.42993 11.1288 6.00195 13.7939 6.00195 18C6.00195 22.206 6.42993 24.8712 6.59358 25.5096C6.70737 25.9546 7.03062 26.2917 7.39925 26.3952C8.05926 26.5789 11.252 27 18.002 27C24.752 27 27.9453 26.5791 28.605 26.3952C28.9718 26.2932 29.295 25.9562 29.4108 25.5078C29.574 24.8712 30.002 22.2 30.002 18C30.002 13.8 29.574 11.1288 29.4108 10.4922ZM32.3168 9.74727C33.002 12.42 33.002 18 33.002 18C33.002 18 33.002 23.58 32.3168 26.2527C31.935 27.731 30.821 28.8927 29.4089 29.2854C26.8461 30 18.002 30 18.002 30C18.002 30 9.16304 30 6.59504 29.2854C5.17767 28.8873 4.06367 27.7254 3.68709 26.2527C3.00195 23.58 3.00195 18 3.00195 18C3.00195 18 3.00195 12.42 3.68709 9.74727C4.06889 8.26909 5.18291 7.10727 6.59504 6.71454C9.16304 6 18.002 6 18.002 6C18.002 6 26.8461 6 29.4089 6.71454C30.8262 7.11273 31.9403 8.27454 32.3168 9.74727ZM15.002 23.25V12.75L24.002 18L15.002 23.25Z" fill="white"/>
</svg>
