<svg width="160" height="138" viewBox="0 0 160 138" fill="none" xmlns="http://www.w3.org/2000/svg">
<path d="M139.469 11.0775C140.974 10.2945 141.682 8.67558 142.816 7.50022C142.532 11.0555 144.369 14.2746 147.234 16.2859C143.708 16.1914 140.37 17.926 138.682 21.0927C138.476 19.6388 138.549 18.1402 138.138 16.7335C137.354 14.8788 135.575 13.7515 134.151 12.4304C135.952 12.1548 137.874 12.068 139.469 11.0775Z" fill="#9FC519"/>
<path d="M119.445 2.32551C119.529 4.59156 119.414 7.09311 120.862 9.00208C121.881 10.2316 123.256 11.1016 124.397 12.2105C122.579 12.3158 120.635 12.2159 118.99 13.1283C117.228 14.1012 116.12 15.8378 114.923 17.3739C114.891 15.5456 115.027 13.6173 114.102 11.9676C113.221 9.99949 111.186 8.98646 109.559 7.7474C113.599 8.0291 117.733 6.16239 119.445 2.32551Z" fill="#9FC519"/>
<path d="M156.795 30.004C158.831 29.9525 159.743 32.7116 158.266 34.0149C156.893 35.7032 153.925 33.8607 154.623 31.8585C154.714 30.7465 155.789 30.1129 156.795 30.004Z" fill="#9FC519"/>
<path d="M118.442 38.7195C120.843 37.3161 123.034 35.4331 125.734 34.627C123.784 36.71 121.722 38.7234 119.254 40.1959C120.545 43.1003 122.422 45.7374 123.441 48.7644C121.281 46.4401 119.555 43.7667 117.311 41.5205C114.855 43.1003 112.535 44.9642 109.747 45.9432C111.78 43.6717 114.192 41.7672 116.588 39.8853C115.102 37.1901 113.396 34.5644 112.469 31.614C114.678 33.7942 116.282 36.4919 118.442 38.7195Z" fill="#9FC519"/>
<path d="M88.5989 25.6892C87.682 32.5041 86.1424 39.299 86.1213 46.2126C86.0637 49.2645 87.2802 52.422 89.8268 54.2374C94.3853 57.6535 99.5493 60.1444 104.451 63.0175C98.3449 62.5494 92.1794 60.9219 86.0516 61.996C82.3629 62.6533 79.914 65.7698 78.2411 68.8793C75.3248 73.9873 73.0162 79.4084 70.5641 84.7365C71.3683 78.4395 72.6656 72.1782 72.8485 65.8121C72.8752 62.7925 72.509 59.4357 70.279 57.1797C65.8191 52.5361 59.6157 50.2749 54.0648 47.2483C59.7131 47.6707 65.3519 48.6367 71.0277 48.3486C74.0395 48.1793 77.0834 46.9065 78.8785 44.4025C83.0865 38.7219 85.5654 32.0188 88.5989 25.6892Z" fill="#9FC519"/>
<path d="M131.3 60.8117C132.778 59.4601 135.17 61.1651 134.743 63.0167C134.619 64.4093 132.979 64.5697 131.92 64.8624C130.726 63.9239 129.751 61.9272 131.3 60.8117Z" fill="#9FC519"/>
<path d="M151.095 69.4784C149.579 68.8546 149.978 66.4827 151.56 66.2839C152.007 66.4366 152.886 66.7374 153.332 66.8902C153.343 68.1378 152.738 70.0651 151.095 69.4784Z" fill="#9FC519"/>
<path d="M56.148 71.3614C58.1341 71.6889 57.4914 74.6002 55.5925 74.4589C53.7789 73.9985 54.0619 70.9548 56.148 71.3614Z" fill="#9FC519"/>
<path d="M43.4786 74.4385C45.6887 73.8677 46.7082 77.503 44.4465 78.1066C41.9864 79.1251 40.7964 74.7038 43.4786 74.4385Z" fill="#9FC519"/>
<path d="M75.7148 114.104C77.3316 112.374 76.9829 109.583 78.7453 108.03C78.3859 110.386 77.6109 112.655 76.8609 114.91C79.5626 114.382 82.114 113.225 84.8524 112.846C82.4377 114.453 79.7572 115.624 77.097 116.753C79.3246 118.704 80.4225 121.687 81.4836 124.389C79.6315 122.119 77.8969 119.761 76.0241 117.512C75.3276 119.729 74.4781 121.905 73.7732 124.127C73.5964 124.051 73.245 123.914 73.0741 123.84C73.8107 121.85 74.3936 119.798 74.6159 117.682C71.8765 117.909 69.5433 119.499 66.8734 119.968C69.1807 118.218 71.8957 117.092 74.4646 115.789C73.1617 113.22 71.2145 110.879 70.7817 107.958C72.4662 109.99 73.2633 112.761 75.7148 114.104Z" fill="#9FC519"/>
<path d="M59.4916 106.693C61.8458 105.905 63.3111 109.928 60.8952 110.649C58.289 111.871 56.83 107.449 59.4916 106.693Z" fill="#9FC519"/>
<path d="M30.2121 99.3142C29.9108 104.24 27.5561 109.232 28.9523 114.167C31.4071 117.945 36.3698 118.749 39.7126 121.427C35.8726 120.903 32.0106 119.916 28.1148 120.35C25.4106 120.753 24.3681 123.616 23.3044 125.747C21.9365 128.211 20.9835 130.874 19.6812 133.373C20.3888 128.808 21.8775 124.045 20.8322 119.447C18.3783 115.4 13.3811 114.018 9.47511 111.794C12.9466 111.947 16.3818 112.594 19.8528 112.726C21.5871 112.685 23.614 112.347 24.5604 110.706C26.8242 107.117 28.7828 103.308 30.2121 99.3142Z" fill="#9FC519"/>
<path d="M44.5712 119.897C45.4542 119.481 46.6451 118.786 47.4826 119.717C48.9267 120.809 47.7038 123.34 45.9421 122.958C44.494 122.701 44.3981 121.053 44.5712 119.897Z" fill="#9FC519"/>
<path d="M0.43565 129.523C0.135371 127.466 2.91906 126.562 3.77781 128.447C4.449 129.935 2.83033 130.759 1.59448 130.754C1.30246 130.449 0.726289 129.834 0.43565 129.523Z" fill="#9FC519"/>
</svg>
