<svg width="464" height="312" viewBox="0 0 464 312" fill="none" xmlns="http://www.w3.org/2000/svg">
<path fill-rule="evenodd" clip-rule="evenodd" d="M307.833 65.7546C307.833 65.7546 268.83 34.2849 211.406 34.3473C149.841 34.414 110.703 64.5914 110.703 64.5914C110.703 64.5914 142.772 40.1635 211.406 40.1635C268.431 39.6691 307.833 65.7546 307.833 65.7546Z" fill="white"/>
<path fill-rule="evenodd" clip-rule="evenodd" d="M31.1692 302.974L28.796 310.893H26.6181L22.5977 298.368H25.3604L27.7537 306.21L30.0885 298.368H32.2672L34.6092 306.234L36.9953 298.368H39.7399L35.7202 310.893H33.5415L31.1692 302.974ZM50.347 311.106C49.403 311.106 48.5319 310.94 47.7353 310.609C46.938 310.278 46.239 309.817 45.6369 309.225C45.0348 308.634 44.5685 307.945 44.2375 307.158C43.9071 306.372 43.7416 305.523 43.7416 304.613C43.7416 303.69 43.9071 302.839 44.2375 302.058C44.5685 301.278 45.029 300.595 45.6188 300.009C46.2094 299.424 46.9026 298.968 47.6999 298.643C48.4965 298.318 49.3675 298.155 50.3116 298.155C51.2448 298.155 52.1093 298.318 52.9058 298.643C53.7031 298.968 54.3993 299.424 54.9956 300.009C55.592 300.595 56.0553 301.28 56.3856 302.067C56.7167 302.853 56.8815 303.708 56.8815 304.63C56.8815 305.541 56.7167 306.39 56.3856 307.176C56.0553 307.963 55.5948 308.649 55.0043 309.235C54.4144 309.82 53.7205 310.278 52.9239 310.609C52.1266 310.94 51.2679 311.106 50.347 311.106ZM50.3116 308.569C51.0554 308.569 51.7081 308.403 52.2683 308.072C52.8292 307.741 53.2629 307.277 53.5701 306.68C53.8774 306.082 54.0306 305.394 54.0306 304.613C54.0306 304.021 53.9417 303.486 53.7646 303.008C53.5875 302.528 53.3338 302.115 53.0034 301.766C52.6731 301.417 52.2806 301.15 51.8259 300.967C51.3713 300.784 50.8667 300.692 50.3116 300.692C49.5678 300.692 48.9157 300.855 48.3548 301.18C47.7939 301.505 47.3602 301.96 47.0537 302.546C46.7465 303.131 46.5932 303.82 46.5932 304.613C46.5932 305.204 46.6814 305.742 46.8585 306.227C47.0356 306.712 47.2865 307.129 47.611 307.478C47.9356 307.827 48.3281 308.096 48.7885 308.285C49.249 308.474 49.7571 308.569 50.3116 308.569ZM65.0273 305.73V310.893H62.2472V298.368H67.3476C68.1738 298.368 68.8995 298.525 69.5255 298.839C70.1515 299.151 70.6409 299.587 70.9951 300.142C71.3493 300.698 71.5264 301.337 71.5264 302.058C71.5264 302.792 71.3493 303.433 70.9951 303.983C70.6409 304.533 70.145 304.962 69.5075 305.269C69.1518 305.441 68.7615 305.565 68.3364 305.641L72.341 310.893H69.047L65.3178 305.73H65.0273ZM65.0273 300.532V303.672H67.0107C67.5659 303.672 67.9938 303.53 68.2945 303.247C68.5959 302.963 68.7463 302.579 68.7463 302.094C68.7463 301.644 68.5988 301.272 68.3039 300.976C68.0083 300.68 67.5832 300.532 67.0288 300.532H65.0273ZM79.92 304.73V310.893H77.14V298.368H79.92V304.018L84.5419 298.368H87.9776L82.9191 304.329L88.1547 310.893H84.7017L79.92 304.73ZM96.2296 311.088C95.2024 311.088 94.3206 310.92 93.5826 310.582C92.8445 310.245 92.1687 309.734 91.555 309.048L93.3614 307.256C93.7625 307.717 94.2078 308.075 94.6979 308.329C95.188 308.584 95.7576 308.711 96.4067 308.711C96.9973 308.711 97.4548 308.605 97.7794 308.392C98.104 308.179 98.2666 307.883 98.2666 307.504C98.2666 307.161 98.1603 306.884 97.9478 306.671C97.7353 306.458 97.4548 306.274 97.1064 306.121C96.758 305.967 96.3742 305.819 95.9557 305.678C95.5364 305.536 95.12 305.373 94.7073 305.189C94.2938 305.006 93.9129 304.775 93.5645 304.497C93.2168 304.22 92.9363 303.871 92.7238 303.451C92.5113 303.031 92.405 302.501 92.405 301.863C92.405 301.094 92.5908 300.432 92.9624 299.876C93.3346 299.32 93.8507 298.897 94.5121 298.608C95.1735 298.318 95.9347 298.173 96.7963 298.173C97.6703 298.173 98.4697 298.327 99.1962 298.634C99.9219 298.941 100.521 299.361 100.993 299.894L99.1875 301.686C98.8095 301.296 98.4285 301.005 98.0447 300.816C97.6616 300.627 97.2271 300.532 96.7436 300.532C96.2592 300.532 95.8754 300.624 95.5921 300.808C95.3087 300.991 95.167 301.254 95.167 301.597C95.167 301.916 95.2733 302.173 95.4858 302.369C95.6983 302.564 95.9788 302.732 96.3272 302.874C96.6756 303.016 97.0594 303.158 97.478 303.3C97.8972 303.442 98.3136 303.607 98.7271 303.797C99.1398 303.986 99.5207 304.226 99.8691 304.515C100.218 304.805 100.497 305.171 100.71 305.615C100.922 306.058 101.029 306.606 101.029 307.256C101.029 308.451 100.604 309.388 99.7542 310.068C98.9041 310.748 97.7295 311.088 96.2296 311.088ZM115.373 310.893H106.394V298.368H115.285V300.763H109.175V303.336H114.753V305.659H109.175V308.48H115.373V310.893ZM124.316 311.088C123.289 311.088 122.406 310.92 121.668 310.582C120.93 310.245 120.254 309.734 119.64 309.048L121.447 307.256C121.848 307.717 122.294 308.075 122.784 308.329C123.273 308.584 123.843 308.711 124.493 308.711C125.083 308.711 125.54 308.605 125.865 308.392C126.189 308.179 126.352 307.883 126.352 307.504C126.352 307.161 126.246 306.884 126.033 306.671C125.821 306.458 125.54 306.274 125.192 306.121C124.844 305.967 124.46 305.819 124.041 305.678C123.622 305.536 123.206 305.373 122.793 305.189C122.379 305.006 121.998 304.775 121.651 304.497C121.302 304.22 121.022 303.871 120.809 303.451C120.597 303.031 120.49 302.501 120.49 301.863C120.49 301.094 120.676 300.432 121.049 299.876C121.42 299.32 121.937 298.897 122.598 298.608C123.259 298.318 124.02 298.173 124.882 298.173C125.756 298.173 126.556 298.327 127.282 298.634C128.008 298.941 128.607 299.361 129.079 299.894L127.273 301.686C126.895 301.296 126.515 301.005 126.131 300.816C125.747 300.627 125.313 300.532 124.829 300.532C124.345 300.532 123.962 300.624 123.678 300.808C123.395 300.991 123.253 301.254 123.253 301.597C123.253 301.916 123.359 302.173 123.572 302.369C123.785 302.564 124.065 302.732 124.413 302.874C124.761 303.016 125.145 303.158 125.564 303.3C125.983 303.442 126.399 303.607 126.813 303.797C127.226 303.986 127.606 304.226 127.955 304.515C128.303 304.805 128.583 305.171 128.796 305.615C129.008 306.058 129.115 306.606 129.115 307.256C129.115 308.451 128.69 309.388 127.84 310.068C126.99 310.748 125.815 311.088 124.316 311.088ZM137.915 311.088C136.888 311.088 136.006 310.92 135.268 310.582C134.53 310.245 133.854 309.734 133.241 309.048L135.047 307.256C135.448 307.717 135.894 308.075 136.384 308.329C136.874 308.584 137.443 308.711 138.092 308.711C138.683 308.711 139.141 308.605 139.465 308.392C139.79 308.179 139.952 307.883 139.952 307.504C139.952 307.161 139.846 306.884 139.634 306.671C139.421 306.458 139.141 306.274 138.792 306.121C138.444 305.967 138.06 305.819 137.641 305.678C137.222 305.536 136.806 305.373 136.392 305.189C135.98 305.006 135.599 304.775 135.25 304.497C134.903 304.22 134.622 303.871 134.41 303.451C134.197 303.031 134.091 302.501 134.091 301.863C134.091 301.094 134.277 300.432 134.648 299.876C135.02 299.32 135.537 298.897 136.198 298.608C136.859 298.318 137.62 298.173 138.482 298.173C139.356 298.173 140.156 298.327 140.882 298.634C141.608 298.941 142.207 299.361 142.679 299.894L140.873 301.686C140.495 301.296 140.114 301.005 139.73 300.816C139.347 300.627 138.913 300.532 138.429 300.532C137.945 300.532 137.561 300.624 137.278 300.808C136.995 300.991 136.853 301.254 136.853 301.597C136.853 301.916 136.959 302.173 137.172 302.369C137.384 302.564 137.665 302.732 138.013 302.874C138.361 303.016 138.745 303.158 139.164 303.3C139.583 303.442 139.999 303.607 140.413 303.797C140.826 303.986 141.207 304.226 141.555 304.515C141.903 304.805 142.183 305.171 142.396 305.615C142.608 306.058 142.714 306.606 142.714 307.256C142.714 308.451 142.289 309.388 141.44 310.068C140.59 310.748 139.415 311.088 137.915 311.088ZM148.08 310.893V298.368H150.861V310.893H148.08ZM162.831 311.106C161.887 311.106 161.016 310.94 160.22 310.609C159.423 310.278 158.723 309.817 158.121 309.225C157.519 308.634 157.053 307.945 156.722 307.158C156.391 306.372 156.227 305.523 156.227 304.613C156.227 303.69 156.391 302.839 156.722 302.058C157.053 301.278 157.513 300.595 158.103 300.009C158.694 299.424 159.388 298.968 160.184 298.643C160.981 298.318 161.852 298.155 162.796 298.155C163.729 298.155 164.593 298.318 165.39 298.643C166.187 298.968 166.883 299.424 167.48 300.009C168.076 300.595 168.54 301.28 168.87 302.067C169.201 302.853 169.366 303.708 169.366 304.63C169.366 305.541 169.201 306.39 168.87 307.176C168.54 307.963 168.079 308.649 167.489 309.235C166.899 309.82 166.205 310.278 165.408 310.609C164.612 310.94 163.752 311.106 162.831 311.106ZM162.796 308.569C163.54 308.569 164.192 308.403 164.753 308.072C165.313 307.741 165.748 307.277 166.054 306.68C166.362 306.082 166.515 305.394 166.515 304.613C166.515 304.021 166.427 303.486 166.25 303.008C166.072 302.528 165.818 302.115 165.488 301.766C165.157 301.417 164.765 301.15 164.31 300.967C163.855 300.784 163.351 300.692 162.796 300.692C162.053 300.692 161.4 300.855 160.839 301.18C160.279 301.505 159.844 301.96 159.538 302.546C159.231 303.131 159.077 303.82 159.077 304.613C159.077 305.204 159.166 305.742 159.343 306.227C159.52 306.712 159.771 307.129 160.095 307.478C160.42 307.827 160.813 308.096 161.273 308.285C161.734 308.474 162.241 308.569 162.796 308.569ZM177.512 303.392V310.893H174.731V298.368H176.679L182.612 305.982V298.368H185.392V310.893H183.356L177.512 303.392ZM203.402 310.893H198.355V298.368H203.366C204.311 298.368 205.181 298.519 205.979 298.821C206.775 299.122 207.472 299.554 208.068 300.115C208.664 300.677 209.124 301.34 209.449 302.102C209.774 302.866 209.936 303.708 209.936 304.63C209.936 305.541 209.774 306.381 209.449 307.15C209.124 307.919 208.667 308.581 208.077 309.137C207.486 309.692 206.792 310.125 205.996 310.432C205.199 310.739 204.334 310.893 203.402 310.893ZM201.135 300.799V308.444H203.331C204.086 308.444 204.748 308.294 205.314 307.993C205.881 307.691 206.318 307.25 206.625 306.671C206.931 306.091 207.085 305.405 207.085 304.613C207.085 303.82 206.928 303.14 206.615 302.572C206.303 302.005 205.866 301.567 205.306 301.26C204.745 300.952 204.086 300.799 203.331 300.799H201.135ZM224.28 310.893H215.302V298.368H224.191V300.763H218.082V303.336H223.66V305.659H218.082V308.48H224.28V310.893ZM239.527 300.799H235.613V298.368H246.221V300.799H242.307V310.893H239.527V300.799ZM260.352 310.893H251.374V298.368H260.264V300.763H254.154V303.336H259.732V305.659H254.154V308.48H260.352V310.893ZM268.639 308.622L267.807 310.893H264.921L269.88 298.368H272.394L277.299 310.893H274.36L273.539 308.622H268.639ZM272.72 306.352L271.106 301.885L269.47 306.352H272.72ZM283.887 300.799H279.973V298.368H290.58V300.799H286.667V310.893H283.887V300.799ZM298.514 305.73V310.893H295.734V298.368H300.834C301.66 298.368 302.386 298.525 303.012 298.839C303.638 299.151 304.127 299.587 304.481 300.142C304.836 300.698 305.013 301.337 305.013 302.058C305.013 302.792 304.836 303.433 304.481 303.983C304.127 304.533 303.631 304.962 302.994 305.269C302.638 305.441 302.248 305.565 301.823 305.641L305.827 310.893H302.534L298.804 305.73H298.514ZM298.514 300.532V303.672H300.497C301.052 303.672 301.48 303.53 301.781 303.247C302.082 302.963 302.233 302.579 302.233 302.094C302.233 301.644 302.085 301.272 301.79 300.976C301.495 300.68 301.07 300.532 300.515 300.532H298.514ZM316.541 311.106C315.597 311.106 314.726 310.94 313.929 310.609C313.133 310.278 312.433 309.817 311.831 309.225C311.229 308.634 310.762 307.945 310.432 307.158C310.101 306.372 309.936 305.523 309.936 304.613C309.936 303.69 310.101 302.839 310.432 302.058C310.762 301.278 311.223 300.595 311.813 300.009C312.403 299.424 313.097 298.968 313.894 298.643C314.691 298.318 315.561 298.155 316.506 298.155C317.439 298.155 318.303 298.318 319.1 298.643C319.897 298.968 320.594 299.424 321.189 300.009C321.786 300.595 322.249 301.28 322.58 302.067C322.91 302.853 323.076 303.708 323.076 304.63C323.076 305.541 322.91 306.39 322.58 307.176C322.249 307.963 321.789 308.649 321.199 309.235C320.608 309.82 319.915 310.278 319.118 310.609C318.321 310.94 317.462 311.106 316.541 311.106ZM316.506 308.569C317.25 308.569 317.902 308.403 318.463 308.072C319.023 307.741 319.457 307.277 319.764 306.68C320.071 306.082 320.224 305.394 320.224 304.613C320.224 304.021 320.136 303.486 319.959 303.008C319.782 302.528 319.528 302.115 319.197 301.766C318.867 301.417 318.474 301.15 318.02 300.967C317.565 300.784 317.06 300.692 316.506 300.692C315.762 300.692 315.109 300.855 314.549 301.18C313.988 301.505 313.555 301.96 313.247 302.546C312.94 303.131 312.787 303.82 312.787 304.613C312.787 305.204 312.876 305.742 313.052 306.227C313.229 306.712 313.481 307.129 313.805 307.478C314.13 307.827 314.523 308.096 314.983 308.285C315.443 308.474 315.951 308.569 316.506 308.569ZM338.163 303.944V310.893H335.4V298.368H337.384L341.801 305.261L346.203 298.368H348.204V310.893H345.423V303.968L342.714 308.196H340.872L338.163 303.944ZM359.219 311.088C358.192 311.088 357.285 310.869 356.5 310.432C355.715 309.994 355.102 309.388 354.659 308.613C354.216 307.838 353.995 306.955 353.995 305.961V298.368H356.792V306.121C356.792 306.617 356.899 307.049 357.111 307.415C357.324 307.783 357.616 308.064 357.988 308.258C358.36 308.454 358.77 308.551 359.219 308.551C359.691 308.551 360.104 308.454 360.458 308.258C360.812 308.064 361.093 307.785 361.299 307.425C361.506 307.064 361.609 306.636 361.609 306.139V298.368H364.408V305.979C364.408 306.972 364.189 307.854 363.752 308.622C363.315 309.391 362.707 309.994 361.928 310.432C361.149 310.869 360.245 311.088 359.219 311.088ZM373.828 311.088C372.801 311.088 371.919 310.92 371.181 310.582C370.443 310.245 369.767 309.734 369.153 309.048L370.959 307.256C371.361 307.717 371.807 308.075 372.297 308.329C372.786 308.584 373.356 308.711 374.006 308.711C374.595 308.711 375.053 308.605 375.377 308.392C375.702 308.179 375.865 307.883 375.865 307.504C375.865 307.161 375.758 306.884 375.546 306.671C375.333 306.458 375.053 306.274 374.705 306.121C374.357 305.967 373.973 305.819 373.554 305.678C373.135 305.536 372.718 305.373 372.305 305.189C371.892 305.006 371.511 304.775 371.163 304.497C370.815 304.22 370.534 303.871 370.322 303.451C370.109 303.031 370.003 302.501 370.003 301.863C370.003 301.094 370.189 300.432 370.561 299.876C370.933 299.32 371.45 298.897 372.11 298.608C372.772 298.318 373.533 298.173 374.395 298.173C375.268 298.173 376.069 298.327 376.794 298.634C377.521 298.941 378.119 299.361 378.592 299.894L376.786 301.686C376.408 301.296 376.027 301.005 375.643 300.816C375.26 300.627 374.826 300.532 374.342 300.532C373.857 300.532 373.474 300.624 373.191 300.808C372.908 300.991 372.766 301.254 372.766 301.597C372.766 301.916 372.872 302.173 373.085 302.369C373.297 302.564 373.578 302.732 373.925 302.874C374.274 303.016 374.658 303.158 375.077 303.3C375.496 303.442 375.912 303.607 376.325 303.797C376.739 303.986 377.119 304.226 377.467 304.515C377.816 304.805 378.096 305.171 378.309 305.615C378.521 306.058 378.627 306.606 378.627 307.256C378.627 308.451 378.202 309.388 377.352 310.068C376.502 310.748 375.328 311.088 373.828 311.088ZM383.993 310.893V298.368H386.773V310.893H383.993ZM398.709 311.088C397.776 311.088 396.911 310.925 396.115 310.6C395.317 310.275 394.621 309.817 394.025 309.225C393.428 308.634 392.965 307.945 392.635 307.158C392.304 306.372 392.139 305.523 392.139 304.613C392.139 303.702 392.304 302.853 392.635 302.067C392.965 301.28 393.426 300.598 394.016 300.018C394.606 299.438 395.3 298.986 396.096 298.661C396.894 298.335 397.758 298.173 398.691 298.173C399.682 298.173 400.565 298.332 401.339 298.652C402.112 298.971 402.788 299.409 403.366 299.965L401.506 301.845C401.176 301.49 400.778 301.212 400.311 301.012C399.845 300.81 399.305 300.71 398.691 300.71C398.148 300.71 397.649 300.802 397.194 300.985C396.74 301.168 396.35 301.431 396.026 301.774C395.701 302.118 395.447 302.531 395.264 303.016C395.082 303.501 394.99 304.033 394.99 304.613C394.99 305.204 395.082 305.742 395.264 306.227C395.447 306.712 395.701 307.126 396.026 307.469C396.35 307.812 396.74 308.078 397.194 308.267C397.649 308.457 398.148 308.551 398.691 308.551C399.328 308.551 399.883 308.451 400.355 308.25C400.827 308.048 401.235 307.77 401.577 307.415L403.454 309.296C402.852 309.852 402.165 310.29 401.391 310.609C400.618 310.928 399.724 311.088 398.709 311.088ZM411.033 308.622L410.201 310.893H407.315L412.273 298.368H414.788L419.693 310.893H416.754L415.933 308.622H411.033ZM415.114 306.352L413.5 301.885L411.865 306.352H415.114ZM432.939 310.893H424.616V298.368H427.396V308.444H432.939V310.893Z" fill="white"/>
<path fill-rule="evenodd" clip-rule="evenodd" d="M33.9621 205.769V216.262C33.9621 218.272 34.1198 219.548 33.6524 220.569C33.2629 221.421 32.3357 221.878 30.8342 222.758C29.2908 223.662 28.5284 225.472 28.9488 227.204C-21.6049 177.786 2.95757 103.688 36.1239 107.116C50.9343 108.647 55.5994 125.442 55.5994 125.442C55.5994 125.442 46.7713 112.27 32.3694 118.635C20.0229 124.091 8.47815 168.178 33.9621 205.769ZM32.1789 230.235C32.405 230.274 32.6368 230.294 32.8725 230.294H58.0942C97.0923 258.419 170.835 273.578 303.556 245.582C387.619 227.85 437.913 262.101 437.913 262.101C437.913 262.101 384.004 232.952 310.681 250.569C155.939 287.75 72.4928 266.546 32.1789 230.235Z" fill="white"/>
<path fill-rule="evenodd" clip-rule="evenodd" d="M371.792 140.628C367.441 140.128 363.579 138.963 361.491 137.14C357.218 133.43 356.743 130.006 356.743 123.823V89.4859C356.743 83.3032 357.218 79.8788 361.491 76.1692C367.282 71.1279 386.651 71.1281 392.443 76.2645C396.336 79.7839 395.956 83.3982 395.956 90.2467V123.062C395.956 129.309 396.273 132.868 393.377 136.117C385.963 135.737 378.811 136.791 371.967 140.533C371.911 140.564 371.848 140.596 371.792 140.628ZM380.765 129.15V84.1593C380.765 79.2132 372.315 79.2132 372.315 84.1593V129.15C372.315 134.096 380.765 134.096 380.765 129.15ZM102.286 129.816C102.286 135.428 102.381 136.855 107.413 139.803H81.0176C86.0498 136.855 86.2399 135.428 86.2399 129.816V68.9403C86.2399 63.3284 86.0498 61.9015 81.0176 58.9529H107.413C102.381 61.9015 102.286 63.3284 102.286 68.9403V129.816ZM163.336 130.006V85.0151C163.336 82.447 161.343 80.6399 158.494 80.6399H154.222V126.011C154.222 129.721 154.981 130.862 158.115 133.145C152.703 134.572 150.994 136.094 147.291 141.04C143.208 136.189 141.309 135.047 135.612 133.145C137.986 130.672 138.65 129.911 138.65 126.011V85.0151C138.65 82.447 136.656 80.6399 133.808 80.6399H129.536V128.579C129.536 134.952 128.966 136.379 133.998 139.803H109.597C114.439 136.474 113.964 134.952 113.964 128.77V86.3468C113.964 79.0227 113.964 77.6911 107.888 73.5059H155.551C160.299 73.5059 170.553 72.8402 175.395 77.6912C179.288 81.591 178.813 88.0591 178.813 92.2442V127.628C178.813 142.657 178.338 146.366 186.694 153.69C178.243 153.31 174.825 151.788 168.559 146.081C166.185 143.893 162.007 140.754 159.729 139.993C162.862 138.091 163.336 135.999 163.336 130.006ZM226.096 106.417V123.062C226.096 129.911 226.571 133.525 222.678 137.045C216.792 142.181 197.518 142.181 191.631 137.14C187.453 133.43 186.979 130.006 186.979 123.823V89.4859C186.979 83.3032 187.453 79.8788 191.631 76.1692C197.518 71.1279 216.792 71.1281 222.678 76.2645C226.571 79.7839 226.096 83.3982 226.096 90.2467V100.329C220.115 100.615 210.24 102.612 202.549 106.417V129.15C202.549 134.096 210.905 134.096 210.905 129.15V110.222C214.513 107.939 220.969 106.702 226.096 106.417ZM210.905 94.527V84.1593C210.905 79.2132 202.549 79.2132 202.549 84.1593V96.6197L210.905 94.527ZM250.593 128.579C250.593 134.952 250.023 136.379 255.055 139.803H230.654C235.496 136.474 235.021 134.952 235.021 128.77V82.4472C235.021 78.0717 234.736 76.4546 231.128 73.5059H245.94L248.599 75.884C253.061 72.3646 258.189 71.984 261.037 72.6498V83.7788C257.904 81.4009 255.056 80.4495 252.682 81.8763C250.593 83.0177 250.593 85.2055 250.593 86.5372V128.579ZM288.571 115.168C288.571 112.409 288.761 112.219 285.723 110.317C285.153 110.031 283.729 109.365 280.027 107.463L278.412 106.607C269.487 101.851 264.55 100.805 264.55 91.9588C264.55 87.4883 263.98 79.879 269.772 75.884C276.323 71.4135 290.281 71.2231 297.972 74.8375C304.428 77.8813 303.763 83.6837 303.763 90.8175V97.761C298.541 94.7172 294.648 93.6709 288.571 92.9099V84.1593C288.571 79.2132 280.121 79.1181 280.121 84.1593V92.2442C280.311 97.3806 282.969 97.9513 287.812 100.139L289.711 100.995C301.769 106.227 303.763 107.368 303.763 118.402V128.294C303.763 132.289 302.909 135.618 298.636 138.186C292.37 141.896 276.608 141.896 270.247 137.901C264.74 134.477 264.55 128.104 264.55 123.253V107.843L280.121 114.597V129.245C280.121 134.191 288.571 134.191 288.571 129.245V115.168ZM333.766 84.7299C333.766 79.6887 325.316 79.6887 325.316 84.7299V94.7172C319.999 95.9537 315.062 98.1415 310.504 101.661V91.1027C310.504 83.3031 310.03 78.8326 315.632 75.5035C322.183 71.5085 336.33 71.3183 343.546 75.5986C349.337 79.0228 348.673 82.8276 348.673 90.342V130.386C348.673 136.664 348.958 136.95 352.661 139.803H330.633C309.46 139.803 310.789 139.803 310.789 121.35C310.789 107.178 309.65 107.653 323.512 101.566L325.126 100.805C329.399 98.9975 333.482 97.8562 333.766 92.7198V84.7299ZM325.316 113.836V126.582C325.316 131.243 325.981 131.338 333.766 131.338V107.843C328.165 110.317 325.316 111.553 325.316 113.836ZM343.546 54.1019H346.489C345.635 57.9066 343.641 63.9941 338.988 65.6111C333.196 67.7037 330.538 63.7088 324.461 61.5211C322.562 60.7602 321.328 60.5699 319.144 61.9967C318.1 62.6625 317.72 63.5186 316.486 66.3721H313.353C314.397 61.9016 316.296 56.4798 321.423 54.9579C327.88 53.1507 329.874 57.9067 336.71 59.6188C338.609 59.9993 340.317 59.7138 341.837 57.7163C342.691 56.7651 343.166 54.9579 343.546 54.1019Z" fill="white"/>
<path fill-rule="evenodd" clip-rule="evenodd" d="M393.566 161.954C393.511 162.779 393.495 163.635 393.495 164.523V215.982C393.495 222.545 393.495 223.306 398.527 226.254H377.923C358.744 226.254 355.896 225.113 355.896 207.421V174.985C355.896 161.384 357.605 159.957 376.309 159.957H378.968C379.079 157.436 378.944 155.36 378.422 153.473C380.384 153.798 382.339 154.48 384.111 155.336C387.869 157.135 390.805 159.45 393.566 161.954ZM440.019 187.985V216.837C440.019 223.115 440.399 223.401 444.101 226.254H421.979C400.901 226.254 402.23 226.254 402.23 207.801C402.23 193.629 400.996 194.104 414.858 188.017L416.567 187.256C419.392 186.067 422.098 185.163 423.712 183.197C428.016 185.013 432.518 186.439 437.257 187.446C438.167 187.644 439.093 187.827 440.019 187.985ZM416.757 179.86V181.168C411.44 182.405 406.503 184.592 401.85 188.112V177.554C401.85 174.51 401.795 171.966 402.056 169.81C402.167 169.905 402.293 170.008 402.412 170.103C406.977 173.86 411.733 177.134 416.757 179.86ZM416.757 200.287V213.033C416.757 217.694 417.421 217.789 425.207 217.789V194.294C419.605 196.768 416.757 198.004 416.757 200.287ZM371.467 210.845C371.467 217.028 371.562 217.503 378.588 217.503V168.423C371.562 168.423 371.467 168.803 371.467 175.081V210.845ZM81.5945 145.404V160.432C78.1764 153.679 71.3402 154.44 65.8333 154.44H55.1993V178.981C65.7384 178.981 70.3907 179.932 75.5179 173.939V193.534C70.8655 188.112 66.5931 188.588 60.6114 188.683H55.1993V216.933H67.2574C73.6189 216.742 78.5562 218.264 81.5945 212.462V226.254H32.8867C37.9189 223.306 38.0139 221.879 38.0139 216.267V155.391C38.0139 149.779 37.9189 148.352 32.8867 145.404H81.5945ZM111.123 201.619C111.123 198.86 111.313 198.67 108.275 196.768C107.705 196.482 106.281 195.816 102.578 193.914L100.964 193.058C92.0386 188.302 87.1013 187.256 87.1013 178.41C87.1013 173.939 86.5319 166.33 92.3236 162.335C98.875 157.864 112.832 157.674 120.523 161.289C126.979 164.332 126.314 170.135 126.314 177.268V184.212C121.092 181.168 117.2 180.122 111.123 179.361V170.61C111.123 165.664 102.673 165.569 102.673 170.61V178.695C102.863 183.832 105.521 184.402 110.363 186.59L112.262 187.446C124.32 192.678 126.314 193.819 126.314 204.853V214.745C126.314 218.74 125.46 222.069 121.187 224.637C114.921 228.347 99.1598 228.347 92.7984 224.352C87.2914 220.928 87.1013 214.555 87.1013 209.704V194.294L102.673 201.048V215.696C102.673 220.642 111.123 220.642 111.123 215.696V201.619ZM184.896 216.457V171.466C184.896 168.898 182.903 167.091 180.054 167.091H175.782V212.462C175.782 216.172 176.541 217.313 179.675 219.596C174.263 221.023 172.554 222.545 168.851 227.491C164.768 222.64 162.869 221.498 157.172 219.596C159.546 217.123 160.21 216.362 160.21 212.462V171.466C160.21 168.898 158.216 167.091 155.368 167.091H151.096V215.03C151.096 221.403 150.526 222.83 155.558 226.254H131.157C135.999 222.925 135.524 221.403 135.524 215.22V172.798C135.524 165.474 135.524 164.142 129.448 159.957H177.111C181.859 159.957 192.113 159.291 196.955 164.142C200.848 168.042 200.373 174.51 200.373 178.695V214.079C200.373 229.108 199.898 232.817 208.254 240.141C199.803 239.761 196.385 238.239 190.119 232.532C187.745 230.344 183.567 227.205 181.289 226.444C184.422 224.542 184.896 222.45 184.896 216.457ZM247.656 192.868V209.513C247.656 216.362 248.131 219.976 244.238 223.496C238.352 228.632 219.078 228.632 213.191 223.591C209.013 219.881 208.539 216.457 208.539 210.274V175.937C208.539 169.754 209.013 166.33 213.191 162.62C219.078 157.579 238.352 157.579 244.238 162.715C248.131 166.235 247.656 169.849 247.656 176.698V186.78C241.675 187.065 231.801 189.063 224.11 192.868V215.601C224.11 220.547 232.465 220.547 232.465 215.601V196.673C236.073 194.39 242.529 193.153 247.656 192.868ZM232.465 180.978V170.61C232.465 165.664 224.11 165.664 224.11 170.61V183.071L232.465 180.978ZM272.153 215.03C272.153 221.403 271.583 222.83 276.615 226.254H252.214C257.057 222.925 256.581 221.403 256.581 215.22V168.898C256.581 164.523 256.297 162.906 252.689 159.957H267.5L270.159 162.335C274.621 158.816 279.749 158.435 282.597 159.101V170.23C279.464 167.852 276.616 166.9 274.242 168.327C272.153 169.469 272.153 171.656 272.153 172.988V215.03ZM306.808 171.181C306.808 166.14 298.358 166.14 298.358 171.181V181.168C293.041 182.405 288.104 184.592 283.452 188.112V177.554C283.452 169.754 283.072 165.284 288.578 161.954C295.225 157.96 309.277 157.769 316.493 162.05C322.285 165.474 321.62 169.279 321.62 176.793V216.837C321.62 223.115 322 223.401 325.703 226.254H303.58C282.502 226.254 283.831 226.254 283.831 207.801C283.831 193.629 282.597 194.104 296.459 188.017L298.168 187.256C302.441 185.448 306.429 184.307 306.808 179.171V171.181ZM298.358 200.287V213.033C298.358 217.694 299.023 217.789 306.808 217.789V194.294C301.207 196.768 298.358 198.004 298.358 200.287ZM331.875 157.389C331.875 151.491 330.45 147.972 323.994 144.263C326.937 144.263 329.691 145.024 331.115 145.594L338.71 148.258C344.597 150.16 346.022 151.016 350.959 151.396C347.731 152.918 347.351 155.011 347.351 158.816V215.03C347.351 221.403 346.876 222.83 351.908 226.254H327.507C332.254 222.925 331.875 221.403 331.875 215.22V157.389Z" fill="white"/>
<path d="M112.324 8.96495C113.419 8.39508 113.933 7.2161 114.758 6.36032C114.553 8.9499 115.889 11.2953 117.974 12.7611C115.409 12.6912 112.982 13.9537 111.755 16.2597C111.605 15.2007 111.657 14.1092 111.358 13.0844C110.787 11.7332 109.493 10.9116 108.456 9.94879C109.766 9.74864 111.165 9.68597 112.324 8.96495Z" fill="#FEFEFE"/>
<path d="M97.7594 2.59046C97.8209 4.24106 97.7381 6.06313 98.7918 7.45405C99.5333 8.34992 100.534 8.98406 101.364 9.79215C100.042 9.86825 98.6279 9.79487 97.4314 10.459C96.1499 11.1671 95.3451 12.4317 94.4749 13.5502C94.4506 12.2185 94.5493 10.8139 93.8759 9.61207C93.2342 8.17822 91.7535 7.43971 90.5698 6.5367C93.5085 6.74312 96.5152 5.38469 97.7594 2.59046Z" fill="#FEFEFE"/>
<path d="M124.925 22.754C126.406 22.7171 127.07 24.7272 125.996 25.676C124.998 26.9054 122.839 25.5623 123.345 24.1042C123.412 23.2942 124.193 22.833 124.925 22.754Z" fill="#FEFEFE"/>
<path d="M97.0357 29.1038C98.782 28.0824 100.375 26.7115 102.339 26.1252C100.921 27.6418 99.4216 29.1077 97.6271 30.1795C98.5669 32.2954 99.9335 34.2168 100.675 36.422C99.1036 34.7283 97.8468 32.7805 96.2142 31.1437C94.4281 32.2937 92.7409 33.6506 90.7133 34.3628C92.1914 32.709 93.9457 31.3224 95.6877 29.9524C94.6063 27.9889 93.3642 26.0758 92.6887 23.9264C94.2963 25.5151 95.4642 27.4806 97.0357 29.1038Z" fill="#FEFEFE"/>
<path d="M75.325 19.6171C74.6601 24.5809 73.5423 29.53 73.529 34.5659C73.488 36.789 74.3739 39.0894 76.2269 40.4125C79.544 42.9023 83.3012 44.7183 86.8679 46.8126C82.4259 46.4697 77.9403 45.2823 73.4832 46.0628C70.8001 46.5405 69.0196 48.8099 67.8036 51.0744C65.6838 54.7942 64.0061 58.7424 62.2239 62.6227C62.807 58.0361 63.7488 53.4757 63.8799 48.8386C63.8984 46.639 63.631 44.1937 62.0082 42.5498C58.7624 39.1659 54.2492 37.5169 50.2104 35.3106C54.3193 35.62 58.4214 36.3254 62.5501 36.1172C64.7409 35.9949 66.9547 35.0687 68.2598 33.2453C71.3191 29.1087 73.1203 24.2268 75.325 19.6171Z" fill="#FEFEFE"/>
<path d="M106.383 45.1983C107.457 44.2143 109.198 45.4569 108.888 46.8055C108.799 47.8198 107.605 47.9362 106.835 48.149C105.966 47.4651 105.257 46.0104 106.383 45.1983Z" fill="#FEFEFE"/>
<path d="M120.778 51.5123C119.675 51.0575 119.964 49.3299 121.116 49.1856C121.44 49.297 122.08 49.5164 122.404 49.6278C122.412 50.5365 121.973 51.9402 120.778 51.5123Z" fill="#FEFEFE"/>
<path d="M51.7312 52.8852C53.176 53.1243 52.7093 55.2448 51.328 55.1412C50.0086 54.8053 50.2136 52.5884 51.7312 52.8852Z" fill="#FEFEFE"/>
<path d="M42.519 55.1266C44.1265 54.7116 44.8692 57.3598 43.2242 57.7987C41.435 58.5399 40.5681 55.319 42.519 55.1266Z" fill="#FEFEFE"/>
<path d="M65.9592 84.0252C67.1347 82.7654 66.8802 80.7324 68.1617 79.6012C67.9011 81.3174 67.338 82.9697 66.7931 84.6125C68.7582 84.2284 70.6138 83.3869 72.6056 83.1117C70.8496 84.2813 68.9001 85.1334 66.9654 85.9552C68.5864 87.3771 69.386 89.5499 70.1586 91.5182C68.8107 89.8641 67.5482 88.1461 66.1852 86.5077C65.6792 88.1223 65.062 89.7072 64.5499 91.325C64.4212 91.2696 64.1656 91.1699 64.0412 91.1159C64.5764 89.6666 64.9998 88.1722 65.1609 86.631C63.1683 86.7951 61.4715 87.9527 59.5295 88.2939C61.2073 87.0197 63.182 86.2002 65.0502 85.2523C64.1017 83.3806 62.6846 81.6747 62.3688 79.5468C63.5948 81.027 64.1755 83.0458 65.9592 84.0252Z" fill="#FEFEFE"/>
<path d="M54.1621 78.6259C55.8744 78.0522 56.9415 80.9832 55.1843 81.5077C53.2889 82.397 52.2263 79.1754 54.1621 78.6259Z" fill="#FEFEFE"/>
<path d="M32.8644 73.2538C32.6467 76.8415 30.9353 80.4773 31.9525 84.0723C33.7393 86.825 37.3496 87.4119 39.782 89.3639C36.9886 88.9813 34.1789 88.2613 31.3452 88.5758C29.3782 88.8689 28.6207 90.9538 27.8476 92.5055C26.8533 94.3001 26.1609 96.2394 25.2144 98.0591C25.7277 94.7347 26.8091 91.2653 26.0473 87.9159C24.2611 84.9672 20.6256 83.9591 17.7836 82.3378C20.3089 82.4505 22.8079 82.9225 25.3328 83.0202C26.5944 82.9905 28.0687 82.7453 28.7567 81.5499C30.4023 78.9364 31.8259 76.1627 32.8644 73.2538Z" fill="#FEFEFE"/>
<path d="M43.3106 88.2451C43.9528 87.942 44.8188 87.4367 45.4283 88.1149C46.4791 88.9107 45.5903 90.7534 44.3087 90.4747C43.2553 90.2871 43.1851 89.0871 43.3106 88.2451Z" fill="#FEFEFE"/>
<path d="M11.213 95.2575C10.9939 93.7594 13.0185 93.1014 13.6437 94.4749C14.1324 95.5589 12.9552 96.1586 12.0563 96.155C11.8438 95.9326 11.4245 95.4844 11.213 95.2575Z" fill="#FEFEFE"/>
<path d="M57.4025 107.374C57.5805 106.654 58.4827 106.795 59.0228 106.626C59.4383 107.264 59.7858 108.43 58.796 108.751C57.9788 109.326 56.9853 108.135 57.4025 107.374Z" fill="#FEFEFE"/>
<path fill-rule="evenodd" clip-rule="evenodd" d="M442.664 164.308C444.241 167.22 447.521 170.511 449.42 172.118C451.239 173.629 453.172 175.039 455.238 176.193C456.244 176.755 457.284 177.313 458.335 177.784C459.937 178.502 462.26 178.921 463.445 180.259C463.716 180.565 463.931 180.932 463.897 181.355C463.856 181.852 463.463 182.251 463.096 182.546C459.94 185.088 453.549 185.074 449.637 184.951C445.766 184.83 441.854 184.28 438.07 183.475C425.56 180.812 414.786 175.074 404.954 166.98C398.327 161.523 393.844 155.526 385.839 151.695C383.347 150.502 380.558 149.6 377.796 149.33C373.536 148.913 369.083 149.68 365.707 152.451C365.709 152.378 365.712 152.305 365.717 152.232C365.844 150.38 367.591 148.561 368.914 147.418C370.431 146.108 372.135 145.057 373.889 144.098C381.845 139.749 390.264 139.5 399.044 140.746C402.46 141.232 405.79 142.054 409.22 142.391C411.838 148.272 416.903 153.387 421.864 157.126C427.481 161.359 435.406 164.457 442.664 164.308ZM411.829 141.662C413.753 140.541 415.169 138.942 416.119 136.797C416.723 135.435 417.281 134.156 418.344 133.079C422.145 129.229 428.583 130.117 433.44 130.591C435.77 130.818 438.062 131.058 440.406 131.046C443.717 131.029 447.665 130.552 450.105 128.058C452.361 125.751 453.561 122.282 453.526 119.085C453.504 117.063 453.081 115.113 451.581 113.672C450.54 112.671 449.188 112.032 447.722 112.1C446.974 112.135 446.276 112.393 445.783 112.975C445.338 113.502 445.15 114.2 445.23 114.881C445.299 115.468 445.556 116.097 446.036 116.463C446.076 116.493 446.117 116.522 446.159 116.547C446.202 116.573 446.246 116.597 446.291 116.618C446.336 116.64 446.382 116.658 446.43 116.675C446.477 116.691 446.525 116.705 446.573 116.716C446.622 116.727 446.671 116.736 446.721 116.742C446.77 116.748 446.82 116.752 446.87 116.752C446.92 116.753 446.969 116.751 447.019 116.747C447.069 116.742 447.118 116.735 447.167 116.725C448.016 116.562 448.434 115.916 448.906 115.268C448.86 115.998 448.763 116.684 448.317 117.294C447.769 118.044 446.794 118.454 445.895 118.558C445.825 118.565 445.756 118.571 445.686 118.575C445.617 118.579 445.547 118.582 445.478 118.582C445.408 118.582 445.338 118.581 445.268 118.578C445.199 118.575 445.129 118.57 445.06 118.564C444.991 118.557 444.921 118.549 444.852 118.539C444.783 118.529 444.715 118.517 444.646 118.504C444.578 118.49 444.51 118.475 444.443 118.458C444.375 118.441 444.308 118.423 444.241 118.402C444.174 118.382 444.108 118.36 444.043 118.336C443.977 118.313 443.912 118.287 443.848 118.261C443.784 118.234 443.72 118.205 443.657 118.175C443.595 118.145 443.533 118.113 443.471 118.08C443.41 118.047 443.35 118.012 443.29 117.976C443.231 117.939 443.172 117.901 443.115 117.862C443.057 117.823 443 117.782 442.945 117.74C442.889 117.698 442.835 117.654 442.782 117.61C441.732 116.738 441.168 115.42 441.076 114.074C440.962 112.412 441.548 110.951 442.639 109.712C444.114 108.039 446.396 107.146 448.589 107.015C451.449 106.845 454.028 108.106 456.122 109.981C461.225 114.553 463.621 122.262 463.963 128.955C464.146 132.539 463.647 136.313 462.745 139.781C462.233 141.748 461.572 143.943 460.382 145.602C457.227 150.003 449.157 149.566 445.024 154.198C443.339 156.087 441.579 159.074 441.776 161.71C439.613 161.66 437.539 161.285 435.128 160.578C426.413 158.023 417.934 151.806 413.114 144.045C412.634 143.272 412.212 142.478 411.829 141.662Z" fill="white"/>
</svg>
