<svg width="150" height="71" viewBox="0 0 150 71" fill="none" xmlns="http://www.w3.org/2000/svg">
<path d="M34.5081 69.5937H33.8457V62.2571H34.5081C34.823 62.2711 35.1321 62.3461 35.4184 62.4779C35.7058 62.6095 35.968 62.7905 36.1931 63.0124C36.3039 63.123 36.4026 63.2451 36.4875 63.3766C36.5735 63.5098 36.6511 63.6482 36.7199 63.791C36.8427 64.087 36.9059 64.4042 36.9059 64.7246C36.9059 65.045 36.8427 65.3622 36.7199 65.6581C36.5915 65.9455 36.4132 66.2078 36.1931 66.4329C35.968 66.6549 35.7058 66.8358 35.4184 66.9674C35.2797 67.0367 35.1326 67.0875 34.9807 67.1185C34.8254 67.1533 34.6672 67.1728 34.5081 67.1766V69.5937ZM34.5081 66.5375C34.7399 66.5335 34.9682 66.4807 35.1782 66.3825C35.3853 66.2868 35.5741 66.1557 35.736 65.9951C35.8982 65.8315 36.0295 65.6399 36.1234 65.4296C36.3043 64.985 36.3043 64.4874 36.1234 64.0428C36.0304 63.832 35.899 63.6402 35.736 63.4773C35.5744 63.3163 35.3855 63.1852 35.1782 63.0899C35.0698 63.0335 34.9571 62.9856 34.8412 62.9466C34.7298 62.9166 34.6156 62.8984 34.5003 62.8924L34.5081 66.5375Z" fill="white"/>
<path d="M43.6254 62.2571C43.9476 62.2716 44.2643 62.3465 44.5589 62.4779C44.8365 62.6164 45.0913 62.7967 45.3143 63.0124C45.5329 63.2354 45.7066 63.4985 45.8256 63.7872C45.9533 64.0817 46.018 64.3997 46.0154 64.7207C46.0354 65.2173 45.8957 65.7071 45.6169 66.1185C45.338 66.5298 44.9346 66.8409 44.466 67.0062L44.5667 67.134L44.6674 67.2696C44.7322 67.367 44.7917 67.4678 44.8456 67.5717L45.1477 68.1915C45.2441 68.3761 45.3763 68.5397 45.5366 68.6727C45.6969 68.8058 45.882 68.9055 46.0813 68.9662V69.6286C45.544 69.5194 45.0695 69.2072 44.7565 68.7571L44.4853 68.1799C44.4505 68.1024 44.4156 68.0327 44.3807 67.9668L44.2762 67.7809L44.1677 67.626C44.1357 67.5786 44.1007 67.5333 44.0631 67.4904L43.8849 67.3083L43.699 67.165C43.6747 67.1604 43.6497 67.1604 43.6254 67.165V69.5705H42.9746V62.2571H43.6254ZM43.6254 66.5181C43.8677 66.5087 44.1059 66.4521 44.3265 66.3515C44.5343 66.2572 44.7233 66.126 44.8843 65.9642C45.0409 65.8008 45.1646 65.6088 45.2484 65.3986C45.3336 65.1814 45.377 64.9501 45.3763 64.7169C45.3793 64.4751 45.3331 64.2352 45.2407 64.0118C45.1439 63.8031 45.013 63.612 44.8533 63.4463C44.6942 63.2841 44.5064 63.1527 44.2994 63.0589C44.0841 62.9637 43.8528 62.9099 43.6176 62.9001L43.6254 66.5181Z" fill="white"/>
<path d="M59.164 65.9293C59.1699 66.4239 59.0695 66.914 58.8696 67.3664C58.495 68.2572 57.7896 68.9682 56.9018 69.3497C56.4467 69.5498 55.954 69.6501 55.4569 69.6441C54.9662 69.6492 54.48 69.5488 54.0314 69.3497C53.8101 69.2534 53.5975 69.138 53.3961 69.005C53.001 68.73 52.6586 68.3862 52.3851 67.9901C52.2521 67.79 52.1368 67.5788 52.0404 67.3587C51.8462 66.9058 51.7461 66.4182 51.7461 65.9254C51.7461 65.4327 51.8462 64.9451 52.0404 64.4922C52.2186 64.0502 52.4818 63.6475 52.8151 63.3069C53.1554 62.9691 53.5562 62.6985 53.9966 62.5089C54.4536 62.3105 54.9471 62.2102 55.4453 62.2145C55.9384 62.211 56.4268 62.3113 56.8786 62.5089C57.7734 62.8861 58.4842 63.5998 58.858 64.4961C59.0604 64.9467 59.1647 65.4353 59.164 65.9293ZM52.9119 64.2288C52.5214 64.815 52.3466 65.5187 52.4172 66.2195C52.4879 66.9204 52.7997 67.5749 53.2993 68.0714C53.576 68.3566 53.9083 68.582 54.2755 68.7338C54.6506 68.8974 55.0554 68.9818 55.4647 68.9818C55.8739 68.9818 56.2787 68.8974 56.6539 68.7338C57.019 68.5782 57.3505 68.3532 57.63 68.0714C57.9126 67.7945 58.1412 67.4674 58.304 67.1069C58.4604 66.7393 58.5421 66.3443 58.5442 65.9448C58.5435 65.5377 58.4619 65.1348 58.304 64.7595C58.1362 64.4023 57.9126 64.0741 57.6416 63.7872C57.3601 63.5058 57.0292 63.2787 56.6655 63.1171C56.2491 62.9409 55.7986 62.8599 55.3469 62.88C54.8952 62.9001 54.4538 63.0208 54.0547 63.2333C53.5944 63.4612 53.2008 63.8041 52.9119 64.2288Z" fill="white"/>
<path d="M65.2734 62.2571H65.8312C66.6458 62.2976 67.4144 62.6467 67.9811 63.2332C68.3674 63.5664 68.6771 63.9791 68.889 64.4431C69.1009 64.9071 69.2101 65.4114 69.2091 65.9215C69.2093 66.2838 69.1557 66.6441 69.0502 66.9907C68.9965 67.163 68.9305 67.3313 68.8527 67.4942C68.7748 67.6533 68.6868 67.8073 68.5893 67.9552C68.3926 68.2551 68.1524 68.524 67.8765 68.7532C67.7396 68.8715 67.5917 68.9765 67.4349 69.0669C67.2777 69.1601 67.1131 69.2404 66.943 69.3071C66.5935 69.4711 66.2164 69.5683 65.8312 69.5937H65.2851L65.2734 62.2571ZM65.932 68.9314C66.2977 68.882 66.651 68.7651 66.974 68.5866C67.2866 68.4107 67.567 68.1828 67.8029 67.9126C68.0403 67.6402 68.2278 67.3281 68.3568 66.9907C68.4919 66.6505 68.5603 66.2875 68.5583 65.9215C68.5592 65.5544 68.4908 65.1904 68.3568 64.8485C68.2184 64.5167 68.0274 64.2094 67.7913 63.9382C67.672 63.8057 67.5424 63.6826 67.4039 63.5702C67.2639 63.4564 67.115 63.3541 66.9585 63.2642C66.6391 63.087 66.2898 62.9701 65.9281 62.9195L65.932 68.9314Z" fill="white"/>
<path d="M78.9998 62.2571V67.715C79.0007 67.9603 78.9506 68.203 78.8526 68.4278C78.7537 68.6493 78.6159 68.8513 78.4459 69.0243C78.2739 69.1984 78.07 69.3378 77.8455 69.4349C77.6183 69.5396 77.3712 69.5937 77.1211 69.5938C76.8745 69.5955 76.6308 69.5412 76.4083 69.4349C76.1828 69.3415 75.9796 69.2016 75.8118 69.0243C75.6319 68.8588 75.4916 68.6549 75.4012 68.4278C75.2959 68.2051 75.2429 67.9613 75.2462 67.715V62.2571H75.9009V67.7073C75.9007 67.8644 75.9323 68.0199 75.9939 68.1644C76.0497 68.3107 76.137 68.4429 76.2495 68.5517C76.3608 68.6653 76.4921 68.7572 76.6369 68.8229C76.7911 68.8918 76.958 68.9274 77.1269 68.9274C77.2958 68.9274 77.4627 68.8918 77.6169 68.8229C77.7618 68.7609 77.8933 68.6714 78.0043 68.5595C78.1198 68.4491 78.2131 68.3176 78.2793 68.1721C78.3417 68.0238 78.3733 67.8644 78.3723 67.7034V62.2571H78.9998Z" fill="white"/>
<path d="M88.0491 69.5937C87.6275 69.5052 87.224 69.3454 86.8561 69.1212C86.4929 68.9036 86.1694 68.6259 85.8993 68.3C85.6329 67.9775 85.4233 67.612 85.2795 67.2192C85.1311 66.8135 85.0563 66.3845 85.0587 65.9525C85.0547 65.4581 85.155 64.9684 85.3531 64.5154C85.5446 64.0738 85.815 63.6708 86.1511 63.3262C86.4936 62.9904 86.8955 62.7211 87.3364 62.5321C87.7891 62.3332 88.279 62.2328 88.7735 62.2377C88.847 62.2325 88.9208 62.2325 88.9943 62.2377V62.8807C88.921 62.8716 88.8468 62.8716 88.7735 62.8807C88.3741 62.8832 87.9791 62.9648 87.6114 63.1209C87.2453 63.2767 86.9125 63.5016 86.6314 63.7833C86.3489 64.0607 86.1238 64.3911 85.969 64.7556C85.7977 65.1298 85.7105 65.5371 85.7133 65.9487C85.7144 66.3503 85.7951 66.7478 85.9507 67.1181C86.1063 67.4885 86.3337 67.8243 86.6198 68.1063C86.902 68.395 87.2396 68.6238 87.6123 68.7789C87.9851 68.934 88.3853 69.0122 88.789 69.0088H89.0098V69.6596C88.9364 69.6673 88.8624 69.6673 88.789 69.6596C88.6846 69.6676 88.5797 69.6676 88.4752 69.6596V69.7642C88.8394 69.8081 89.0214 69.9863 89.0214 70.2987C89.0214 70.7597 88.7077 70.9921 88.0879 70.9921H87.8555C87.8068 71.0005 87.757 71.0005 87.7083 70.9921V70.6048L88.1189 70.6357C88.4481 70.6357 88.6108 70.5273 88.6108 70.3104C88.6108 70.0934 88.4288 70.016 88.0646 70.016L88.0491 69.5937Z" fill="white"/>
<path d="M98.3999 61.9278C99.091 61.9212 99.771 62.1019 100.368 62.4507C100.954 62.7919 101.443 63.279 101.785 63.8646C102.131 64.4616 102.312 65.139 102.312 65.8286C102.312 66.5181 102.131 67.1955 101.785 67.7925C101.445 68.3813 100.956 68.8703 100.368 69.2102C99.7707 69.5554 99.0933 69.7371 98.4037 69.7371C97.7142 69.7371 97.0368 69.5554 96.4398 69.2102C95.8534 68.8684 95.3661 68.3798 95.0259 67.7925C94.7459 67.311 94.572 66.7752 94.5159 66.221C94.4599 65.6668 94.5229 65.1071 94.7008 64.5792C94.8787 64.0514 95.1674 63.5677 95.5475 63.1605C95.9276 62.7533 96.3903 62.4321 96.9046 62.2183C97.3792 62.0244 97.8872 61.9256 98.3999 61.9278ZM98.3999 62.536C97.8223 62.5321 97.2542 62.6818 96.7536 62.9698C96.2509 63.2561 95.8358 63.6739 95.5527 64.1784C95.1154 64.9358 94.9961 65.8358 95.2212 66.681C95.4463 67.5262 95.9974 68.2477 96.7536 68.6873C97.2561 68.9765 97.8258 69.1288 98.4057 69.1288C98.9855 69.1288 99.5552 68.9765 100.058 68.6873C100.815 68.2484 101.366 67.5272 101.592 66.6819C101.818 65.8367 101.7 64.9363 101.262 64.1784C100.978 63.6738 100.561 63.256 100.058 62.9698C99.5533 62.6809 98.9812 62.5311 98.3999 62.536ZM99.9493 60.8122C99.6754 61.0489 99.3188 61.1673 98.9577 61.1415C98.7616 61.1134 98.5733 61.0462 98.4037 60.9439C98.2355 60.8418 98.0485 60.7746 97.8537 60.7463C97.4957 60.7303 97.146 60.8571 96.8814 61.0988V60.6224C97.1468 60.3821 97.4959 60.2556 97.8537 60.2699C98.0485 60.2981 98.2355 60.3653 98.4037 60.4674C98.5724 60.5722 98.7611 60.6408 98.9577 60.6689C99.3192 60.6932 99.6758 60.5735 99.9493 60.3357V60.8122Z" fill="white"/>
<path d="M108.338 62.2571H111.538V62.9195H109.031V64.2946H110.949V64.9531H109.031V68.9314H111.538V69.5937H108.357L108.338 62.2571Z" fill="white"/>
<path d="M117.027 68.4045C117.175 68.5656 117.355 68.6945 117.555 68.7831C117.755 68.8718 117.971 68.9183 118.189 68.9197C118.354 68.9184 118.518 68.8896 118.674 68.8345C118.827 68.7885 118.966 68.7061 119.08 68.5943C119.137 68.545 119.189 68.4905 119.235 68.4316C119.282 68.3675 119.322 68.2987 119.355 68.2263C119.428 68.0797 119.464 67.9175 119.46 67.7537C119.374 67.2672 119.165 66.811 118.852 66.429L118.306 65.6542C117.67 64.7672 117.349 64.1048 117.349 63.6361C117.35 63.4363 117.395 63.2392 117.481 63.0589C117.552 62.8895 117.66 62.7385 117.798 62.6173C117.927 62.4927 118.078 62.3929 118.244 62.3229C118.411 62.2608 118.588 62.2293 118.767 62.2299C118.975 62.2286 119.181 62.2784 119.366 62.375C119.551 62.4715 119.71 62.6119 119.828 62.7839C119.689 62.9396 119.534 63.081 119.367 63.2061C119.182 63.0287 118.941 62.9207 118.685 62.9001C118.592 62.8855 118.496 62.8929 118.405 62.9217C118.315 62.9505 118.233 63 118.165 63.0661C118.097 63.1322 118.045 63.2132 118.014 63.3027C117.982 63.3922 117.972 63.4878 117.984 63.5818C118.066 64.0244 118.256 64.4398 118.538 64.7904L119.08 65.6C119.739 66.5994 120.072 67.3664 120.072 67.8971C120.075 68.1343 120.031 68.3697 119.944 68.5905C119.866 68.7948 119.744 68.9798 119.588 69.1327C119.428 69.2945 119.235 69.42 119.022 69.5007C118.789 69.5971 118.538 69.6433 118.286 69.6363C117.839 69.6265 117.403 69.4923 117.027 69.249V68.4045Z" fill="white"/>
<path d="M12.4779 18.5974C12.4759 18.56 12.4759 18.5224 12.4779 18.485C12.6522 17.3888 12.1215 16.7032 11.0137 16.645C10.0258 16.629 9.06125 16.9455 8.275 17.5437C7.45165 18.0672 6.80087 18.8217 6.40403 19.713C6.34164 19.8607 6.29239 20.0137 6.25684 20.1701C6.01667 21.2043 6.51637 21.9248 7.57 22.072L7.74819 22.1069C6.70618 22.3277 5.71453 21.9248 5.38527 21.1578C5.26018 20.8347 5.21084 20.4872 5.24106 20.1421C5.27128 19.7969 5.38025 19.4633 5.55958 19.1668C6.01112 18.2546 6.67296 17.4629 7.49058 16.8567C8.3082 16.2506 9.25817 15.8474 10.2622 15.6805C10.6623 15.6147 11.0713 15.6265 11.4669 15.7154C11.8827 15.7821 12.2554 16.0105 12.5035 16.3508C12.7517 16.6911 12.8553 17.1158 12.7917 17.5321C12.7748 17.7102 12.7424 17.8865 12.6948 18.0589C12.6483 18.2371 12.5786 18.4114 12.5166 18.5857L12.4779 18.5974Z" fill="white"/>
<path d="M6.22266 6.15522L5.56414 6.30629V0H4.89013V0.313764C4.89013 2.19377 4.89013 4.07118 4.89013 5.94602C4.89013 6.54256 4.89013 6.54257 4.28197 6.67815C3.86685 6.75741 3.49379 6.98258 3.23022 7.31293C2.96665 7.64329 2.82995 8.05704 2.84485 8.4794C2.84485 9.15728 2.84485 9.83905 2.84485 10.5169C2.84485 10.6796 3.01916 15.4326 2.84485 15.5062L3.34455 15.0917C3.39491 14.654 3.44526 14.2085 3.4685 13.7747C3.47104 13.7222 3.48422 13.6708 3.50724 13.6236V8.45228C3.49676 8.21141 3.5674 7.97398 3.70787 7.77803C3.84834 7.58208 4.05049 7.43896 4.28197 7.37154C4.96115 7.18044 5.64291 7.00225 6.32725 6.83698C6.67588 6.74789 6.88506 6.91057 6.88506 7.26695C6.88506 8.59173 6.88506 9.91393 6.88506 11.2335C6.91872 11.2873 6.93867 11.3485 6.94316 11.4117C6.96698 11.6291 6.97863 11.8477 6.97802 12.0664L7.56681 11.5783C7.56681 10.1373 7.56681 8.69243 7.56681 7.25144C7.57435 7.08308 7.54242 6.91531 7.47355 6.76149C7.40469 6.60767 7.30081 6.47208 7.17021 6.36557C7.0396 6.25905 6.8859 6.18455 6.72138 6.14803C6.55685 6.1115 6.38607 6.11397 6.22266 6.15522Z" fill="white"/>
<path d="M31.8311 28.8779C31.0379 26.9919 29.8898 25.2758 28.4494 23.8228C26.9997 22.3606 25.2925 21.1787 23.4136 20.3366C21.4846 19.4643 19.3948 19.0039 17.2778 18.9847H13.0749L24.0644 29.5481C25.5131 31.2293 24.6687 34.518 22.1276 36.9622C19.5865 39.4065 16.1971 40.1231 14.6515 38.4691C14.4116 38.2102 14.2259 37.9059 14.1053 37.5743L14.0588 37.6091L8.58535 22.9164L8.51562 22.8467V57.1361H17.3088V51.0661C19.4233 51.0466 21.5114 50.5944 23.4446 49.7375C25.3262 48.912 27.0347 47.7384 28.4804 46.2783C29.9225 44.8207 31.0706 43.0992 31.862 41.2077C33.494 37.2598 33.494 32.8259 31.862 28.8779H31.8311Z" fill="white"/>
<path d="M42.8206 47.2545C42.3712 47.3242 41.918 47.3746 41.4687 47.4094L40.0587 47.514V57.1361H31.2539V19.0699H40.0587C42.1639 19.0884 44.2478 19.4941 46.2061 20.2668C48.0511 20.9874 49.7554 22.0258 51.2419 23.3348C52.6592 24.5838 53.8106 26.1054 54.6274 27.8088C55.4462 29.5125 55.8661 31.3804 55.8554 33.2707C55.8709 35.2459 55.4238 37.1973 54.55 38.9688C53.6745 40.7292 52.4315 42.2813 50.9049 43.5203L59.3378 57.1361H48.968L42.8206 47.2545ZM40.0587 38.6589C40.9735 38.6251 41.8782 38.4554 42.7431 38.1553C43.5464 37.8892 44.3022 37.497 44.9821 36.9932C45.5974 36.5396 46.1118 35.9632 46.4928 35.3004C46.8552 34.6757 47.045 33.9658 47.0428 33.2435C47.0475 32.5283 46.8574 31.8253 46.4928 31.2099C46.1045 30.5601 45.591 29.9939 44.9821 29.5442C44.3012 29.042 43.5457 28.6498 42.7431 28.3821C41.8776 28.0859 40.9729 27.9201 40.0587 27.8902V38.6589Z" fill="white"/>
<path d="M150 19.0816V27.8128H142.713V57.1362H134.005V27.8128H126.754V19.0816H150Z" fill="white"/>
<path d="M127.827 43.5281C129.353 42.2891 130.596 40.737 131.472 38.9766C132.344 37.2061 132.79 35.256 132.774 33.2823C132.786 31.3924 132.367 29.5244 131.549 27.8205C130.729 26.1192 129.578 24.5983 128.164 23.3465C126.678 22.0372 124.973 20.9988 123.128 20.2785C121.169 19.5077 119.086 19.102 116.981 19.0816H108.191V57.1362H116.992V47.518L118.398 47.4134C118.852 47.3785 119.301 47.3282 119.754 47.2584L125.898 57.1362H136.264L127.827 43.5281ZM123.426 35.3044C123.045 35.9671 122.531 36.5435 121.916 36.9972C121.235 37.5001 120.48 37.8923 119.677 38.1593C118.812 38.4573 117.907 38.6232 116.992 38.6512V27.8864C117.907 27.9163 118.811 28.0821 119.677 28.3783C120.48 28.6453 121.235 29.0375 121.916 29.5404C122.525 29.9892 123.039 30.5555 123.426 31.2061C123.788 31.8211 123.977 32.5224 123.973 33.2359C123.977 33.9616 123.788 34.6754 123.426 35.3044Z" fill="white"/>
<path d="M67.1133 48.5599L70.7042 40.987L66.5013 33.7394L74.8103 34.8124L80.4038 28.5758L81.9532 36.8112L88.093 39.5228C88.1278 39.0192 88.1549 38.5156 88.1549 38.0004C88.1701 35.444 87.6571 32.912 86.6481 30.563C85.6831 28.2964 84.2888 26.2379 82.542 24.5008C80.7896 22.7713 78.728 21.3864 76.4643 20.418C74.1149 19.4211 71.5888 18.9073 69.0366 18.9073C66.4844 18.9073 63.9583 19.4211 61.6089 20.418C57.0404 22.3533 53.4056 25.9923 51.4755 30.563C50.4836 32.9171 49.9727 35.4459 49.9727 38.0004C49.9727 40.5549 50.4836 43.0837 51.4755 45.4378C53.4047 50.01 57.0397 53.6505 61.6089 55.5867C63.9583 56.5836 66.4844 57.0974 69.0366 57.0974C71.5888 57.0974 74.1149 56.5836 76.4643 55.5867C78.2483 54.8221 79.9098 53.7988 81.3954 52.5498L75.3061 46.7974L67.1133 48.5599Z" fill="white"/>
<path d="M82.2584 44.2215L81.3984 52.5498C81.7858 52.2166 82.1732 51.8719 82.5412 51.5078C84.2879 49.7707 85.6822 47.7121 86.6472 45.4455C87.2442 44.0673 87.6684 42.6205 87.91 41.1381L82.2584 44.2215Z" fill="white"/>
<path d="M101.162 18.9692H92.8378L86.1325 38.6628L88.0926 39.5304L89.6149 40.2045L87.9105 41.138L84.6993 42.8928L79.834 57.1361H89.1307L101.914 50.0822L104.238 57.1361H113.477L101.162 18.9692ZM99.1634 39.9139H99.1286H99.1053L92.4078 43.7411L95.5881 34.3243H97.3235L99.1673 39.8946L99.1634 39.9139Z" fill="white"/>
<path d="M11.4478 14.9329L6.51666 8.66922C6.15524 8.57073 5.78327 8.51611 5.4088 8.50653C4.97666 8.5166 4.54844 8.59102 4.13824 8.72733C4.13824 9.54079 4.16148 13.9722 4.30094 14.0923C4.41967 14.1937 4.51622 14.3184 4.58455 14.4587C4.65289 14.5991 4.69153 14.752 4.69808 14.908C4.70462 15.064 4.67892 15.2196 4.62258 15.3652C4.56625 15.5108 4.48048 15.6432 4.37066 15.7541C4.26598 15.8654 4.13964 15.954 3.99941 16.0147C3.85918 16.0753 3.70803 16.1065 3.55526 16.1065C3.40249 16.1065 3.25134 16.0753 3.11111 16.0147C2.97087 15.954 2.84453 15.8654 2.73986 15.7541C2.96197 15.7834 3.18639 15.7911 3.41 15.7773C3.58488 15.7513 3.74661 15.6693 3.87093 15.5436C3.99525 15.4179 4.07545 15.2552 4.0995 15.0801C4.14697 14.905 4.13681 14.7193 4.07054 14.5505C4.00426 14.3817 3.88539 14.2387 3.73151 14.1427C3.57656 14.042 3.5417 9.38195 3.5417 8.97135C3.32522 9.07346 3.11444 9.18726 2.9103 9.31223C1.71549 9.96006 0.770843 10.9879 0.225867 12.233C0.0463027 12.5931 -0.0285651 12.9965 0.00978409 13.3971C0.0481332 13.7977 0.198158 14.1795 0.44279 14.499C1.71334 16.1879 2.94903 17.904 4.20022 19.6045L4.64956 20.2049C5.07566 17.3655 8.69751 14.6695 11.5446 15.1072C11.5159 15.0472 11.4835 14.989 11.4478 14.9329Z" fill="white"/>
</svg>
